<svg width="30" height="30" viewBox="0 0 30 30" fill="none" xmlns="http://www.w3.org/2000/svg">
<circle cx="15" cy="15" r="15" fill="black"/>
<circle cx="15" cy="15" r="14.5" stroke="#667085" stroke-opacity="0.25"/>
<g clip-path="url(#clip0_1408_149609)">
<g clip-path="url(#clip1_1408_149609)">
<path d="M18.6064 15.3176C18.6256 17.392 20.4262 18.0823 20.4461 18.0911C20.4309 18.1398 20.1584 19.0749 19.4975 20.0408C18.9262 20.8758 18.3332 21.7078 17.3991 21.725C16.4813 21.7419 16.1861 21.1807 15.1368 21.1807C14.0878 21.1807 13.7598 21.7078 12.891 21.7419C11.9894 21.7761 11.3028 20.839 10.7267 20.007C9.54955 18.3051 8.64996 15.198 9.85788 13.1006C10.4579 12.059 11.5303 11.3994 12.6943 11.3825C13.5796 11.3656 14.4153 11.9782 14.9566 11.9782C15.4975 11.9782 16.5131 11.2415 17.5807 11.3497C18.0276 11.3683 19.2822 11.5303 20.0878 12.7094C20.0229 12.7497 18.5908 13.5833 18.6064 15.3176V15.3176ZM16.8814 10.2238C17.3601 9.64436 17.6823 8.83774 17.5944 8.03516C16.9044 8.06289 16.07 8.49495 15.5751 9.07406C15.1316 9.58689 14.7431 10.4077 14.8479 11.1944C15.617 11.2539 16.4027 10.8036 16.8814 10.2238" fill="white"/>
</g>
</g>
<defs>
<clipPath id="clip0_1408_149609">
<rect width="11.6071" height="13.9286" fill="white" transform="translate(9.10742 8.03516)"/>
</clipPath>
<clipPath id="clip1_1408_149609">
<rect width="11.1615" height="13.7338" fill="white" transform="translate(9.28467 8.03516)"/>
</clipPath>
</defs>
</svg>
