<svg width="12" height="12" viewBox="0 0 12 12" fill="none" xmlns="http://www.w3.org/2000/svg">
<circle cx="6" cy="6" r="6" fill="black"/>
<g clip-path="url(#clip0_1554_217901)">
<g clip-path="url(#clip1_1554_217901)">
<path d="M7.44255 6.12685C7.45026 6.95662 8.17047 7.23274 8.17845 7.23626C8.17236 7.25574 8.06337 7.62977 7.79901 8.01611C7.57048 8.35013 7.33329 8.68292 6.95965 8.68982C6.59251 8.69658 6.47446 8.4721 6.05472 8.4721C5.6351 8.4721 5.50394 8.68292 5.1564 8.69658C4.79574 8.71023 4.52111 8.33539 4.29068 8.00259C3.81982 7.32186 3.45999 6.07899 3.94315 5.24003C4.18318 4.8234 4.61212 4.55957 5.0777 4.55281C5.43186 4.54605 5.76614 4.79107 5.98264 4.79107C6.199 4.79107 6.60522 4.49642 7.03227 4.53969C7.21104 4.54713 7.71287 4.61191 8.03511 5.08358C8.00914 5.09967 7.43633 5.43314 7.44255 6.12685V6.12685ZM6.75256 4.08932C6.94403 3.85755 7.07291 3.5349 7.03775 3.21387C6.76175 3.22496 6.42801 3.39778 6.23005 3.62943C6.05263 3.83456 5.89725 4.16289 5.93918 4.47757C6.24681 4.50137 6.56108 4.32124 6.75256 4.08932" fill="white"/>
</g>
</g>
<defs>
<clipPath id="clip0_1554_217901">
<rect width="4.64286" height="5.57143" fill="white" transform="translate(3.64294 3.21387)"/>
</clipPath>
<clipPath id="clip1_1554_217901">
<rect width="4.46458" height="5.49354" fill="white" transform="translate(3.71387 3.21387)"/>
</clipPath>
</defs>
</svg>
