<svg width="55" height="12" viewBox="0 0 55 12" fill="none" xmlns="http://www.w3.org/2000/svg">
<g clip-path="url(#clip0_1900_15286)">
<path d="M7.48467 3.20954C7.17587 3.20954 6.87971 3.08469 6.66135 2.86245C6.44299 2.6402 6.32031 2.33878 6.32031 2.02448V1.19971C6.32031 0.885408 6.44299 0.583984 6.66135 0.361742C6.87971 0.1395 7.17587 0.0146484 7.48467 0.0146484C7.79348 0.0146484 8.08964 0.1395 8.308 0.361742C8.52636 0.583984 8.64903 0.885408 8.64903 1.19971V2.02448C8.64903 2.33878 8.52636 2.6402 8.308 2.86245C8.08964 3.08469 7.79348 3.20954 7.48467 3.20954V3.20954Z" fill="#EC00D0"/>
<path d="M1.16277 3.21002C0.854172 3.20969 0.558331 3.08469 0.340238 2.86248C0.122145 2.64028 -0.000359968 2.33904 -0.000359795 2.02496V1.20019C-0.0054396 1.0414 0.0209014 0.8832 0.0770986 0.734982C0.133296 0.586764 0.218201 0.451558 0.326766 0.337406C0.435332 0.223254 0.565341 0.132486 0.709064 0.0704962C0.852786 0.00850675 1.00729 -0.0234375 1.16338 -0.0234375C1.31948 -0.0234375 1.47398 0.00850675 1.6177 0.0704962C1.76143 0.132486 1.89144 0.223254 2 0.337406C2.10857 0.451558 2.19347 0.586764 2.24967 0.734982C2.30587 0.8832 2.33221 1.0414 2.32713 1.20019V2.02496C2.32713 2.33926 2.20445 2.64069 1.98609 2.86293C1.76773 3.08517 1.47157 3.21002 1.16277 3.21002V3.21002Z" fill="#EC00D0"/>
<path d="M8.64903 4.5127H6.32031V7.96243C6.32031 7.64813 6.44299 7.3467 6.66135 7.12446C6.87971 6.90222 7.17587 6.77737 7.48467 6.77737C7.79348 6.77737 8.08964 6.90222 8.308 7.12446C8.52636 7.3467 8.64903 7.64813 8.64903 7.96243V7.96243V4.5127Z" fill="#EC00D0"/>
<path d="M1.16314 6.77235C1.31609 6.77218 1.46757 6.80272 1.60891 6.86222C1.75025 6.92172 1.87867 7.009 1.98683 7.11907C2.09498 7.22915 2.18074 7.35985 2.2392 7.50371C2.29766 7.64756 2.32766 7.80174 2.3275 7.95741V4.5127H1.0465e-05V7.96117C-0.000639206 7.80529 0.028966 7.65081 0.0871277 7.50661C0.145289 7.3624 0.230862 7.23131 0.338933 7.12085C0.447005 7.01039 0.575447 6.92274 0.716887 6.86294C0.858326 6.80313 1.00998 6.77234 1.16314 6.77235V6.77235Z" fill="#EC00D0"/>
<path d="M7.48467 6.77246C7.25438 6.77246 7.02927 6.84196 6.83779 6.97218C6.64631 7.10239 6.49707 7.28748 6.40895 7.50402C6.32082 7.72056 6.29776 7.95884 6.34269 8.18872C6.38761 8.41859 6.49851 8.62975 6.66135 8.79549C6.82418 8.96122 7.03165 9.07409 7.25752 9.11981C7.48338 9.16554 7.7175 9.14207 7.93026 9.05238C8.14301 8.96268 8.32486 8.81079 8.4528 8.61591C8.58074 8.42102 8.64903 8.19191 8.64903 7.95752V7.95752C8.64903 7.64322 8.52636 7.3418 8.308 7.11956C8.08964 6.89732 7.79348 6.77246 7.48467 6.77246V6.77246Z" fill="#9933C8"/>
<path d="M1.16313 9.14258C1.39347 9.14283 1.61871 9.07354 1.81035 8.94348C2.00199 8.81341 2.15142 8.62842 2.23973 8.4119C2.32805 8.19538 2.35129 7.95706 2.3065 7.7271C2.26171 7.49714 2.15091 7.28586 1.98812 7.12C1.82533 6.95414 1.61787 6.84115 1.39197 6.79532C1.16607 6.7495 0.931895 6.77289 0.719064 6.86255C0.506233 6.95221 0.324312 7.1041 0.196316 7.29901C0.0683193 7.49391 7.83317e-07 7.72309 6.54077e-07 7.95752V7.95752C-0.000161433 8.11309 0.0298031 8.26716 0.0881831 8.41093C0.146563 8.5547 0.232215 8.68535 0.340237 8.79541C0.44826 8.90547 0.576534 8.99278 0.717731 9.05235C0.858929 9.11192 1.01028 9.14258 1.16313 9.14258V9.14258Z" fill="#9933C8"/>
<path d="M7.48447 9.14279C7.17587 9.14279 6.8799 9.01811 6.66158 8.79614C6.44325 8.57417 6.32043 8.27306 6.32011 7.95898C6.32011 8.88042 5.42464 9.62987 4.32441 9.62987C3.22419 9.62987 2.32749 8.87665 2.32749 7.95898C2.31765 8.26644 2.19073 8.55796 1.97356 8.77191C1.75639 8.98586 1.46599 9.10548 1.16374 9.10548C0.861497 9.10548 0.571093 8.98586 0.353923 8.77191C0.136753 8.55796 0.00983598 8.26644 0 7.95898V7.95898C0 10.1873 1.93896 12 4.32441 12C6.70987 12 8.64883 10.1873 8.64883 7.95898C8.6485 8.27306 8.52569 8.57417 8.30736 8.79614C8.08904 9.01811 7.79306 9.14279 7.48447 9.14279V9.14279Z" fill="#AE6AFF"/>
<path d="M42.2836 2.37012C43.11 2.37012 43.7835 2.88106 43.7835 3.48488C43.7933 3.79234 43.9202 4.08386 44.1374 4.29781C44.3546 4.51176 44.645 4.63138 44.9472 4.63138C45.2494 4.63138 45.5399 4.51176 45.757 4.29781C45.9742 4.08386 46.1011 3.79234 46.111 3.48488C46.111 1.53907 44.394 0 42.2873 0C40.1806 0 38.4637 1.61189 38.4637 3.59285C38.4637 5.57381 40.1806 7.18443 42.2873 7.18443C43.1137 7.18443 43.7872 7.73303 43.7872 8.40716C43.7872 9.08128 43.1137 9.62988 42.2873 9.62988C41.4609 9.62988 40.7887 9.08128 40.7887 8.40716C40.7887 8.09286 40.666 7.79143 40.4477 7.56919C40.2293 7.34695 39.9331 7.22209 39.6243 7.22209C39.3155 7.22209 39.0194 7.34695 38.801 7.56919C38.5826 7.79143 38.46 8.09286 38.46 8.40716C38.46 10.3881 40.1769 12 42.2836 12C44.3903 12 46.1072 10.3881 46.1072 8.40716C46.1072 6.4262 44.3903 4.81557 42.2836 4.81557C41.4572 4.81557 40.785 4.26698 40.785 3.59285C40.785 2.91872 41.4572 2.37012 42.2836 2.37012Z" fill="black"/>
<path d="M18.4646 0.223345C18.174 0.117248 17.8538 0.132878 17.5745 0.2668C17.2951 0.400723 17.0794 0.641993 16.9746 0.937646L14.6225 7.59859L12.2691 0.937646C12.22 0.787723 12.142 0.649297 12.0397 0.530511C11.9373 0.411726 11.8126 0.314979 11.6729 0.245963C11.5333 0.176947 11.3814 0.137057 11.2264 0.128637C11.0714 0.120217 10.9163 0.143437 10.7702 0.196933C10.6241 0.250429 10.49 0.333119 10.3758 0.44014C10.2615 0.547161 10.1695 0.67635 10.105 0.820109C10.0406 0.963867 10.0051 1.11929 10.0005 1.27724C9.99595 1.43518 10.0225 1.59246 10.0785 1.73982L13.3706 11.0621C13.4517 11.2917 13.6004 11.4901 13.7964 11.6305C13.9924 11.7709 14.2262 11.8464 14.4658 11.8467C14.5183 11.8463 14.5706 11.8421 14.6225 11.8342C14.6739 11.8421 14.7259 11.8463 14.7779 11.8467C15.0176 11.8466 15.2515 11.7712 15.4475 11.6308C15.6435 11.4903 15.7922 11.2918 15.8732 11.0621L19.1665 1.73982C19.2707 1.44399 19.2553 1.11814 19.1238 0.833824C18.9922 0.549503 18.7551 0.329943 18.4646 0.223345V0.223345Z" fill="black"/>
<path d="M26.4334 2.52281C26.5895 2.52798 26.7449 2.50118 26.8905 2.44398C27.0362 2.38678 27.169 2.30037 27.2812 2.18987C27.3933 2.07938 27.4825 1.94706 27.5434 1.80078C27.6043 1.6545 27.6357 1.49725 27.6357 1.33838C27.6357 1.17951 27.6043 1.02226 27.5434 0.875984C27.4825 0.729706 27.3933 0.597386 27.2812 0.48689C27.169 0.376395 27.0362 0.28998 26.8905 0.232784C26.7449 0.175587 26.5895 0.148778 26.4334 0.153948H21.7933C21.4847 0.153948 21.1887 0.278631 20.9704 0.500601C20.752 0.722572 20.6292 1.02367 20.6289 1.33775V10.6638C20.6292 10.9779 20.752 11.279 20.9704 11.501C21.1887 11.723 21.4847 11.8476 21.7933 11.8476H26.4334C26.5895 11.8528 26.7449 11.826 26.8905 11.7688C27.0362 11.7116 27.169 11.6252 27.2812 11.5147C27.3933 11.4042 27.4825 11.2719 27.5434 11.1256C27.6043 10.9793 27.6357 10.8221 27.6357 10.6632C27.6357 10.5043 27.6043 10.3471 27.5434 10.2008C27.4825 10.0545 27.3933 9.92221 27.2812 9.81172C27.169 9.70122 27.0362 9.61481 26.8905 9.55761C26.7449 9.50041 26.5895 9.4736 26.4334 9.47877H22.9576V7.05467H25.4467C25.6027 7.05984 25.7581 7.03303 25.9038 6.97584C26.0494 6.91864 26.1823 6.83222 26.2944 6.72173C26.4066 6.61123 26.4958 6.47891 26.5567 6.33264C26.6176 6.18636 26.6489 6.02911 26.6489 5.87024C26.6489 5.71137 26.6176 5.55412 26.5567 5.40784C26.4958 5.26156 26.4066 5.12924 26.2944 5.01875C26.1823 4.90825 26.0494 4.82184 25.9038 4.76464C25.7581 4.70744 25.6027 4.68063 25.4467 4.6858H22.9552V2.52281H26.4334Z" fill="black"/>
<path d="M53.836 9.47626H50.3626L50.4144 7.05467H52.8542C53.0102 7.05984 53.1656 7.03303 53.3113 6.97583C53.4569 6.91864 53.5897 6.83222 53.7019 6.72173C53.814 6.61123 53.9032 6.47891 53.9641 6.33263C54.025 6.18636 54.0564 6.02911 54.0564 5.87024C54.0564 5.71137 54.025 5.55412 53.9641 5.40784C53.9032 5.26156 53.814 5.12924 53.7019 5.01875C53.5897 4.90825 53.4569 4.82184 53.3113 4.76464C53.1656 4.70744 53.0102 4.68063 52.8542 4.6858H50.3626V2.52281H53.836C53.992 2.52798 54.1474 2.50118 54.2931 2.44398C54.4387 2.38678 54.5715 2.30037 54.6837 2.18987C54.7959 2.07938 54.885 1.94706 54.9459 1.80078C55.0069 1.6545 55.0382 1.49725 55.0382 1.33838C55.0382 1.17951 55.0069 1.02226 54.9459 0.875984C54.885 0.729706 54.7959 0.597386 54.6837 0.48689C54.5715 0.376395 54.4387 0.28998 54.2931 0.232784C54.1474 0.175587 53.992 0.148778 53.836 0.153948H49.1995C49.0467 0.153783 48.8953 0.18428 48.754 0.243698C48.6128 0.303116 48.4844 0.390291 48.3763 0.500234C48.2681 0.610177 48.1823 0.740735 48.1238 0.884443C48.0653 1.02815 48.0352 1.18219 48.0352 1.33775V10.6638C48.0352 10.8194 48.0653 10.9734 48.1238 11.1171C48.1823 11.2609 48.2681 11.3914 48.3763 11.5014C48.4844 11.6113 48.6128 11.6985 48.754 11.7579C48.8953 11.8173 49.0467 11.8478 49.1995 11.8476H53.836C53.992 11.8528 54.1474 11.826 54.2931 11.7688C54.4387 11.7116 54.5715 11.6252 54.6837 11.5147C54.7959 11.4042 54.885 11.2719 54.9459 11.1256C55.0069 10.9793 55.0382 10.8221 55.0382 10.6632C55.0382 10.5043 55.0069 10.3471 54.9459 10.2008C54.885 10.0545 54.7959 9.92221 54.6837 9.81171C54.5715 9.70122 54.4387 9.6148 54.2931 9.55761C54.1474 9.50041 53.992 9.4736 53.836 9.47877V9.47626Z" fill="black"/>
<path d="M34.9801 7.21958C35.9878 6.47892 36.6366 5.33027 36.6366 4.04101C36.6366 1.81274 34.6977 0 32.3122 0H30.5472C30.2384 0 29.9422 0.124856 29.7239 0.347098C29.5055 0.56934 29.3828 0.870764 29.3828 1.18506V10.6643C29.3828 10.9786 29.5055 11.28 29.7239 11.5023C29.9422 11.7245 30.2384 11.8494 30.5472 11.8494C30.856 11.8494 31.1521 11.7245 31.3705 11.5023C31.5889 11.28 31.7115 10.9786 31.7115 10.6643V8.08327H32.3122C32.4442 8.08327 32.5749 8.077 32.7032 8.0657L35.0739 11.361C35.1627 11.4905 35.276 11.6005 35.4071 11.6848C35.5383 11.769 35.6847 11.8257 35.8377 11.8516C35.9907 11.8775 36.1472 11.872 36.2981 11.8354C36.449 11.7989 36.5912 11.732 36.7164 11.6388C36.8415 11.5455 36.9471 11.4278 37.0269 11.2924C37.1067 11.1571 37.1592 11.0068 37.1812 10.8506C37.2031 10.6943 37.1942 10.5352 37.1549 10.3824C37.1157 10.2297 37.0468 10.0865 36.9524 9.96129L34.9801 7.21958ZM31.7115 2.37012H32.3122C33.4137 2.37012 34.3091 3.12334 34.3091 4.04101C34.3091 4.95868 33.4137 5.71315 32.3122 5.71315H31.7115V2.37012Z" fill="black"/>
</g>
<defs>
<clipPath id="clip0_1900_15286">
<rect width="55" height="12" fill="white"/>
</clipPath>
</defs>
</svg>
