<svg width="335" height="300" viewBox="0 0 335 300" fill="none" xmlns="http://www.w3.org/2000/svg">
<rect x="0.5" y="0.5" width="334" height="299" rx="4.5" fill="white" stroke="#EBEBEB"/>
<path d="M25.3652 18.7198L21.0186 23.0665C20.5052 23.5798 20.5052 24.4198 21.0186 24.9331L25.3652 29.2798" stroke="#BBBBBB" stroke-miterlimit="10" stroke-linecap="round" stroke-linejoin="round"/>
<path d="M28.3652 18.7198L24.0186 23.0665C23.5052 23.5798 23.5052 24.4198 24.0186 24.9331L28.3652 29.2798" stroke="#BBBBBB" stroke-miterlimit="10" stroke-linecap="round" stroke-linejoin="round"/>
<path d="M62.3652 18.7198L58.0186 23.0665C57.5052 23.5798 57.5052 24.4198 58.0186 24.9331L62.3652 29.2798" stroke="#BBBBBB" stroke-miterlimit="10" stroke-linecap="round" stroke-linejoin="round"/>
<path d="M309.635 18.7198L313.981 23.0665C314.495 23.5798 314.495 24.4198 313.981 24.9331L309.635 29.2798" stroke="#BBBBBB" stroke-miterlimit="10" stroke-linecap="round" stroke-linejoin="round"/>
<path d="M306.635 18.7198L310.981 23.0665C311.495 23.5798 311.495 24.4198 310.981 24.9331L306.635 29.2798" stroke="#BBBBBB" stroke-miterlimit="10" stroke-linecap="round" stroke-linejoin="round"/>
<path d="M272.635 18.7198L276.981 23.0665C277.495 23.5798 277.495 24.4198 276.981 24.9331L272.635 29.2798" stroke="#BBBBBB" stroke-miterlimit="10" stroke-linecap="round" stroke-linejoin="round"/>
<path d="M137.835 29L137.82 27.4033L141.629 23.9023C142.618 22.9575 143.152 22.3716 143.152 21.5293C143.152 20.5845 142.442 19.9985 141.468 20.0059C140.472 19.9985 139.82 20.6284 139.827 21.6465H137.732C137.725 19.5737 139.263 18.248 141.497 18.248C143.768 18.248 145.276 19.5444 145.276 21.3828C145.276 22.5913 144.69 23.5801 142.508 25.5576L140.896 27.125V27.1836H145.423V29H137.835ZM151.106 29.1465C148.448 29.1465 146.844 27.1689 146.844 23.6973C146.844 20.2329 148.462 18.248 151.106 18.248C153.75 18.248 155.369 20.2329 155.369 23.6973C155.369 27.1836 153.758 29.1465 151.106 29.1465ZM149.1 23.6973C149.085 26.1436 149.876 27.3301 151.106 27.3301C152.337 27.3301 153.121 26.1436 153.113 23.6973C153.121 21.2729 152.33 20.0571 151.106 20.0498C149.883 20.0571 149.1 21.2729 149.1 23.6973ZM156.893 29L156.878 27.4033L160.687 23.9023C161.675 22.9575 162.21 22.3716 162.21 21.5293C162.21 20.5845 161.5 19.9985 160.525 20.0059C159.529 19.9985 158.877 20.6284 158.885 21.6465H156.79C156.783 19.5737 158.321 18.248 160.555 18.248C162.825 18.248 164.334 19.5444 164.334 21.3828C164.334 22.5913 163.748 23.5801 161.565 25.5576L159.954 27.125V27.1836H164.48V29H156.893ZM169.974 29.1465C167.645 29.1465 165.975 27.8647 165.931 26.0117H168.157C168.194 26.8027 168.963 27.3228 169.988 27.3301C171.043 27.3228 171.797 26.7368 171.79 25.8799C171.797 25.0156 171.028 24.4077 169.783 24.4004H168.802V22.7744H169.783C170.831 22.7744 171.563 22.2031 171.556 21.3682C171.563 20.5552 170.94 19.9985 170.003 20.0059C169.065 19.9985 168.296 20.5259 168.26 21.3389H166.15C166.187 19.5151 167.828 18.248 170.003 18.248C172.215 18.248 173.687 19.5591 173.68 21.2363C173.687 22.4229 172.859 23.2651 171.673 23.4775V23.5654C173.233 23.7559 174.09 24.7007 174.075 26.0264C174.09 27.8428 172.369 29.1465 169.974 29.1465ZM176.609 29.1318C175.921 29.1318 175.364 28.5825 175.379 27.9014C175.364 27.2275 175.921 26.6782 176.609 26.6855C177.261 26.6782 177.825 27.2275 177.825 27.9014C177.825 28.5825 177.261 29.1318 176.609 29.1318ZM183.23 29.1465C180.572 29.1465 178.968 27.1689 178.968 23.6973C178.968 20.2329 180.586 18.248 183.23 18.248C185.875 18.248 187.493 20.2329 187.493 23.6973C187.493 27.1836 185.882 29.1465 183.23 29.1465ZM181.224 23.6973C181.209 26.1436 182 27.3301 183.23 27.3301C184.461 27.3301 185.245 26.1436 185.237 23.6973C185.245 21.2729 184.454 20.0571 183.23 20.0498C182.007 20.0571 181.224 21.2729 181.224 23.6973ZM192.942 29.1465C190.613 29.1465 188.943 27.8647 188.899 26.0117H191.126C191.163 26.8027 191.932 27.3228 192.957 27.3301C194.012 27.3228 194.766 26.7368 194.759 25.8799C194.766 25.0156 193.997 24.4077 192.752 24.4004H191.771V22.7744H192.752C193.799 22.7744 194.532 22.2031 194.524 21.3682C194.532 20.5552 193.909 19.9985 192.972 20.0059C192.034 19.9985 191.265 20.5259 191.229 21.3389H189.119C189.156 19.5151 190.796 18.248 192.972 18.248C195.184 18.248 196.656 19.5591 196.648 21.2363C196.656 22.4229 195.828 23.2651 194.642 23.4775V23.5654C196.202 23.7559 197.059 24.7007 197.044 26.0264C197.059 27.8428 195.337 29.1465 192.942 29.1465Z" fill="#424242"/>
<circle cx="122" cy="273" r="16" fill="#8265F6"/>
<path d="M114.073 278L114.061 276.616L117.361 273.582C118.218 272.763 118.682 272.255 118.682 271.525C118.682 270.707 118.066 270.199 117.222 270.205C116.358 270.199 115.793 270.745 115.8 271.627H113.984C113.978 269.831 115.311 268.682 117.247 268.682C119.215 268.682 120.522 269.805 120.522 271.398C120.522 272.446 120.015 273.303 118.123 275.017L116.727 276.375V276.426H120.649V278H114.073ZM125.461 278.127C123.36 278.127 121.855 277.022 121.855 275.524C121.855 274.369 122.744 273.43 123.887 273.252V273.188C122.89 272.998 122.205 272.167 122.211 271.157C122.205 269.729 123.582 268.682 125.461 268.682C127.34 268.682 128.717 269.729 128.724 271.157C128.717 272.167 128.013 272.998 127.048 273.188V273.252C128.165 273.43 129.066 274.369 129.066 275.524C129.066 277.022 127.556 278.127 125.461 278.127ZM123.849 275.334C123.842 276.121 124.49 276.673 125.461 276.667C126.432 276.673 127.08 276.121 127.073 275.334C127.08 274.541 126.394 273.957 125.461 273.95C124.528 273.957 123.842 274.534 123.849 275.334ZM124.077 271.348C124.071 272.084 124.648 272.598 125.461 272.604C126.267 272.598 126.851 272.084 126.857 271.348C126.851 270.63 126.28 270.129 125.461 270.129C124.636 270.129 124.071 270.63 124.077 271.348Z" fill="white"/>
<path d="M22.0796 278L22.0669 276.616L25.3677 273.582C26.2246 272.763 26.688 272.255 26.688 271.525C26.688 270.707 26.0723 270.199 25.228 270.205C24.3647 270.199 23.7998 270.745 23.8062 271.627H21.9907C21.9844 269.831 23.3174 268.682 25.2534 268.682C27.2212 268.682 28.5288 269.805 28.5288 271.398C28.5288 272.446 28.021 273.303 26.1294 275.017L24.7329 276.375V276.426H28.6558V278H22.0796ZM33.5688 278.127C31.6709 278.121 29.8555 276.984 29.8618 273.62C29.8682 270.516 31.3472 268.682 33.645 268.682C35.4922 268.682 36.7617 269.85 36.9458 271.36H35.0669C34.9146 270.719 34.3877 270.319 33.645 270.319C32.3945 270.319 31.7407 271.443 31.728 273.252H31.8169C32.2422 272.433 33.1499 271.957 34.1655 271.957C35.8223 271.957 37.0537 273.195 37.0474 274.928C37.0537 276.794 35.6445 278.133 33.5688 278.127ZM31.9185 274.979C31.9312 275.88 32.6167 276.623 33.5562 276.616C34.502 276.623 35.1938 275.905 35.1938 274.979C35.1938 274.058 34.5146 273.347 33.5815 273.341C32.6421 273.347 31.9312 274.083 31.9185 274.979Z" fill="#FF4B4B"/>
<path d="M25.9609 226.809V236H24.0439V228.624H23.9932L21.8857 229.944V228.256L24.1582 226.809H25.9609ZM31.4453 226.682C33.3496 226.688 35.1523 227.824 35.1523 231.163C35.1587 234.286 33.6797 236.127 31.3691 236.127C29.522 236.127 28.2524 234.965 28.0684 233.41H29.9473C30.106 234.089 30.6328 234.489 31.3691 234.489C32.6196 234.489 33.2798 233.366 33.2861 231.531H33.21C32.7783 232.344 31.8706 232.826 30.8486 232.826C29.1982 232.826 27.9795 231.582 27.9668 229.868C27.9668 228.021 29.3696 226.675 31.4453 226.682ZM29.833 229.817C29.833 230.725 30.4995 231.43 31.4453 231.43C32.3784 231.43 33.0957 230.687 33.0957 229.805C33.083 228.929 32.3975 228.186 31.458 228.18C30.5186 228.186 29.8203 228.903 29.833 229.817Z" fill="#FF4B4B"/>
<path d="M27.1704 185.809V195H25.2534V187.624H25.2026L23.0952 188.944V187.256L25.3677 185.809H27.1704ZM29.3032 195L29.2905 193.616L32.5913 190.582C33.4482 189.763 33.9116 189.255 33.9116 188.525C33.9116 187.707 33.2959 187.199 32.4517 187.205C31.5884 187.199 31.0234 187.745 31.0298 188.627H29.2144C29.208 186.831 30.541 185.682 32.4771 185.682C34.4448 185.682 35.7524 186.805 35.7524 188.398C35.7524 189.446 35.2446 190.303 33.353 192.017L31.9565 193.375V193.426H35.8794V195H29.3032Z" fill="#FF4B4B"/>
<path d="M28.5254 154.127C26.6084 154.127 25.2056 152.997 25.1738 151.41H27.0273C27.0718 152.127 27.7256 152.623 28.5254 152.616C29.4775 152.623 30.1567 151.95 30.1504 150.991C30.1567 150.014 29.4648 149.334 28.5 149.328C27.8081 149.328 27.3257 149.588 27.0527 150.103H25.3262L25.8213 144.809H31.4834V146.37H27.3955L27.1416 148.693H27.2178C27.5542 148.243 28.2524 147.913 29.0586 147.919C30.7471 147.913 32.0039 149.176 32.0039 150.94C32.0039 152.8 30.5947 154.127 28.5254 154.127Z" fill="#FF4B4B"/>
<path d="M21.0796 113L21.0669 111.616L24.3677 108.582C25.2246 107.763 25.688 107.255 25.688 106.525C25.688 105.707 25.0723 105.199 24.228 105.205C23.3647 105.199 22.7998 105.745 22.8062 106.627H20.9907C20.9844 104.831 22.3174 103.682 24.2534 103.682C26.2212 103.682 27.5288 104.805 27.5288 106.398C27.5288 107.446 27.021 108.303 25.1294 110.017L23.7329 111.375V111.426H27.6558V113H21.0796ZM32.5688 113.127C30.6709 113.121 28.8555 111.984 28.8618 108.62C28.8682 105.516 30.3472 103.682 32.645 103.682C34.4922 103.682 35.7617 104.85 35.9458 106.36H34.0669C33.9146 105.719 33.3877 105.319 32.645 105.319C31.3945 105.319 30.7407 106.443 30.728 108.252H30.8169C31.2422 107.433 32.1499 106.957 33.1655 106.957C34.8223 106.957 36.0537 108.195 36.0474 109.928C36.0537 111.794 34.6445 113.133 32.5688 113.127ZM30.9185 109.979C30.9312 110.88 31.6167 111.623 32.5562 111.616C33.502 111.623 34.1938 110.905 34.1938 109.979C34.1938 109.058 33.5146 108.347 32.5815 108.341C31.6421 108.347 30.9312 109.083 30.9185 109.979Z" fill="#999999"/>
<path d="M29.541 64.9414C29.4707 64.2676 28.9375 63.875 28.0762 63.875C27.1855 63.875 26.6875 64.2852 26.6816 64.8477C26.6758 65.4629 27.3086 65.7383 28.041 65.9023L28.8027 66.0898C30.2559 66.4238 31.3398 67.1621 31.3457 68.5742C31.3398 70.127 30.1328 71.123 28.0645 71.1172C26.0137 71.123 24.707 70.1738 24.6543 68.3516H26.3652C26.4238 69.207 27.1035 69.6406 28.041 69.6406C28.9668 69.6406 29.5645 69.207 29.5645 68.5742C29.5645 67.9941 29.0371 67.7246 28.1113 67.4961L27.1855 67.2734C25.7559 66.9219 24.877 66.207 24.877 64.9648C24.8711 63.4238 26.2305 62.3984 28.0879 62.3984C29.9688 62.3984 31.2051 63.4414 31.2285 64.9414H29.541Z" fill="#BBBBBB"/>
<path d="M68.0176 278L68.0049 276.616L71.3057 273.582C72.1626 272.763 72.626 272.255 72.626 271.525C72.626 270.707 72.0103 270.199 71.166 270.205C70.3027 270.199 69.7378 270.745 69.7441 271.627H67.9287C67.9224 269.831 69.2554 268.682 71.1914 268.682C73.1592 268.682 74.4668 269.805 74.4668 271.398C74.4668 272.446 73.959 273.303 72.0674 275.017L70.6709 276.375V276.426H74.5938V278H68.0176ZM76.3076 278L80.1797 270.434V270.37H75.6729V268.809H82.1602V270.396L78.2881 278H76.3076Z" fill="#333333"/>
<path d="M67.9653 236L67.9526 234.616L71.2534 231.582C72.1104 230.763 72.5737 230.255 72.5737 229.525C72.5737 228.707 71.958 228.199 71.1138 228.205C70.2505 228.199 69.6855 228.745 69.6919 229.627H67.8765C67.8701 227.831 69.2031 226.682 71.1392 226.682C73.1069 226.682 74.4146 227.805 74.4146 229.398C74.4146 230.446 73.9067 231.303 72.0151 233.017L70.6187 234.375V234.426H74.5415V236H67.9653ZM79.4673 236.127C77.1631 236.127 75.7729 234.413 75.7729 231.404C75.7729 228.402 77.1758 226.682 79.4673 226.682C81.7588 226.682 83.1616 228.402 83.1616 231.404C83.1616 234.426 81.7651 236.127 79.4673 236.127ZM77.728 231.404C77.7153 233.524 78.4009 234.553 79.4673 234.553C80.5337 234.553 81.2129 233.524 81.2065 231.404C81.2129 229.303 80.5273 228.25 79.4673 228.243C78.4072 228.25 77.728 229.303 77.728 231.404Z" fill="#333333"/>
<path d="M72.9863 185.809V195H71.0693V187.624H71.0186L68.9111 188.944V187.256L71.1836 185.809H72.9863ZM78.5215 195.127C76.5029 195.127 75.0557 194.016 75.0176 192.41H76.9473C76.979 193.096 77.6455 193.546 78.5342 193.553C79.4482 193.546 80.1021 193.039 80.0957 192.296C80.1021 191.547 79.4355 191.02 78.3564 191.014H77.5059V189.604H78.3564C79.2642 189.604 79.8989 189.109 79.8926 188.386C79.8989 187.681 79.3594 187.199 78.5469 187.205C77.7344 187.199 77.0679 187.656 77.0361 188.36H75.208C75.2397 186.78 76.6616 185.682 78.5469 185.682C80.4639 185.682 81.7397 186.818 81.7334 188.271C81.7397 189.3 81.0225 190.03 79.9941 190.214V190.29C81.3462 190.455 82.0889 191.274 82.0762 192.423C82.0889 193.997 80.5972 195.127 78.5215 195.127Z" fill="#333333"/>
<path d="M75.6016 154.127C73.7036 154.121 71.8882 152.984 71.8945 149.62C71.9009 146.516 73.3799 144.682 75.6777 144.682C77.5249 144.682 78.7944 145.85 78.9785 147.36H77.0996C76.9473 146.719 76.4204 146.319 75.6777 146.319C74.4272 146.319 73.7734 147.443 73.7607 149.252H73.8496C74.2749 148.433 75.1826 147.957 76.1982 147.957C77.855 147.957 79.0864 149.195 79.0801 150.928C79.0864 152.794 77.6772 154.133 75.6016 154.127ZM73.9512 150.979C73.9639 151.88 74.6494 152.623 75.5889 152.616C76.5347 152.623 77.2266 151.905 77.2266 150.979C77.2266 150.058 76.5474 149.347 75.6143 149.341C74.6748 149.347 73.9639 150.083 73.9512 150.979Z" fill="#333333"/>
<path d="M68.0176 113L68.0049 111.616L71.3057 108.582C72.1626 107.763 72.626 107.255 72.626 106.525C72.626 105.707 72.0103 105.199 71.166 105.205C70.3027 105.199 69.7378 105.745 69.7441 106.627H67.9287C67.9224 104.831 69.2554 103.682 71.1914 103.682C73.1592 103.682 74.4668 104.805 74.4668 106.398C74.4668 107.446 73.959 108.303 72.0674 110.017L70.6709 111.375V111.426H74.5938V113H68.0176ZM76.3076 113L80.1797 105.434V105.37H75.6729V103.809H82.1602V105.396L78.2881 113H76.3076Z" fill="#999999"/>
<path d="M70.918 62.5156H73.0977L75.4531 68.2695H75.5469L77.9023 62.5156H80.082V71H78.3711V65.4453H78.3008L76.0859 70.9648H74.9141L72.6992 65.4219H72.6289V71H70.918V62.5156Z" fill="#BBBBBB"/>
<path d="M116.209 236L116.197 234.616L119.498 231.582C120.354 230.763 120.818 230.255 120.818 229.525C120.818 228.707 120.202 228.199 119.358 228.205C118.495 228.199 117.93 228.745 117.936 229.627H116.121C116.114 227.831 117.447 226.682 119.383 226.682C121.351 226.682 122.659 227.805 122.659 229.398C122.659 230.446 122.151 231.303 120.259 233.017L118.863 234.375V234.426H122.786V236H116.209ZM128.105 226.809V236H126.188V228.624H126.137L124.03 229.944V228.256L126.302 226.809H128.105Z" fill="#333333"/>
<path d="M118.866 185.809V195H116.949V187.624H116.898L114.791 188.944V187.256L117.063 185.809H118.866ZM120.846 193.375V191.864L124.731 185.809H127.13V191.839H128.298V193.375H127.13V195H125.315V193.375H120.846ZM122.776 191.839H125.34V187.903H125.251L122.776 191.763V191.839Z" fill="#333333"/>
<path d="M119.34 154L123.212 146.434V146.37H118.706V144.809H125.193V146.396L121.321 154H119.34Z" fill="#333333"/>
<path d="M114.073 113L114.061 111.616L117.361 108.582C118.218 107.763 118.682 107.255 118.682 106.525C118.682 105.707 118.066 105.199 117.222 105.205C116.358 105.199 115.793 105.745 115.8 106.627H113.984C113.978 104.831 115.311 103.682 117.247 103.682C119.215 103.682 120.522 104.805 120.522 106.398C120.522 107.446 120.015 108.303 118.123 110.017L116.727 111.375V111.426H120.649V113H114.073ZM125.461 113.127C123.36 113.127 121.855 112.022 121.855 110.524C121.855 109.369 122.744 108.43 123.887 108.252V108.188C122.89 107.998 122.205 107.167 122.211 106.157C122.205 104.729 123.582 103.682 125.461 103.682C127.34 103.682 128.717 104.729 128.724 106.157C128.717 107.167 128.013 107.998 127.048 108.188V108.252C128.165 108.43 129.066 109.369 129.066 110.524C129.066 112.022 127.556 113.127 125.461 113.127ZM123.849 110.334C123.842 111.121 124.49 111.673 125.461 111.667C126.432 111.673 127.08 111.121 127.073 110.334C127.08 109.541 126.394 108.957 125.461 108.95C124.528 108.957 123.842 109.534 123.849 110.334ZM124.077 106.348C124.071 107.084 124.648 107.598 125.461 107.604C126.267 107.598 126.851 107.084 126.857 106.348C126.851 105.63 126.28 105.129 125.461 105.129C124.636 105.129 124.071 105.63 124.077 106.348Z" fill="#999999"/>
<path d="M117.531 63.9688V62.5156H124.48V63.9688H121.879V71H120.133V63.9688H117.531Z" fill="#BBBBBB"/>
<path d="M160.08 278L160.067 276.616L163.368 273.582C164.225 272.763 164.688 272.255 164.688 271.525C164.688 270.707 164.072 270.199 163.228 270.205C162.365 270.199 161.8 270.745 161.806 271.627H159.991C159.984 269.831 161.317 268.682 163.253 268.682C165.221 268.682 166.529 269.805 166.529 271.398C166.529 272.446 166.021 273.303 164.129 275.017L162.733 276.375V276.426H166.656V278H160.08ZM171.366 268.682C173.27 268.688 175.073 269.824 175.073 273.163C175.079 276.286 173.6 278.127 171.29 278.127C169.442 278.127 168.173 276.965 167.989 275.41H169.868C170.026 276.089 170.553 276.489 171.29 276.489C172.54 276.489 173.2 275.366 173.207 273.531H173.13C172.699 274.344 171.791 274.826 170.769 274.826C169.119 274.826 167.9 273.582 167.887 271.868C167.887 270.021 169.29 268.675 171.366 268.682ZM169.753 271.817C169.753 272.725 170.42 273.43 171.366 273.43C172.299 273.43 173.016 272.687 173.016 271.805C173.003 270.929 172.318 270.186 171.378 270.18C170.439 270.186 169.741 270.903 169.753 271.817Z" fill="#333333"/>
<path d="M159.789 236L159.776 234.616L163.077 231.582C163.934 230.763 164.397 230.255 164.397 229.525C164.397 228.707 163.782 228.199 162.938 228.205C162.074 228.199 161.509 228.745 161.516 229.627H159.7C159.694 227.831 161.027 226.682 162.963 226.682C164.931 226.682 166.238 227.805 166.238 229.398C166.238 230.446 165.73 231.303 163.839 233.017L162.442 234.375V234.426H166.365V236H159.789ZM167.724 236L167.711 234.616L171.012 231.582C171.869 230.763 172.332 230.255 172.332 229.525C172.332 228.707 171.716 228.199 170.872 228.205C170.009 228.199 169.444 228.745 169.45 229.627H167.635C167.628 227.831 168.961 226.682 170.897 226.682C172.865 226.682 174.173 227.805 174.173 229.398C174.173 230.446 173.665 231.303 171.773 233.017L170.377 234.375V234.426H174.3V236H167.724Z" fill="#FFCF53"/>
<path d="M162.241 238.718C164.341 238.718 165.92 239.781 165.926 241.393C165.92 242.87 164.674 243.858 162.918 244.051V245.722H166.731V246.85H157.783V245.722H161.554V244.051C159.808 243.853 158.567 242.864 158.567 241.393C158.567 239.781 160.141 238.718 162.241 238.718ZM159.921 241.393C159.921 242.424 160.872 242.999 162.241 243.004C163.616 242.999 164.567 242.424 164.572 241.393C164.567 240.415 163.616 239.808 162.241 239.813C160.872 239.808 159.921 240.415 159.921 241.393ZM175.196 240.189V241.274H168.396V238.331H169.761V240.189H175.196ZM167.279 243.015V241.93H176.228V243.015H167.279ZM168.3 244.658V243.605H175.153V246.205H169.696V246.828H175.454V247.881H168.321V245.217H173.789V244.658H168.3Z" fill="#DDDDDD"/>
<path d="M166.062 185.809V195H164.146V187.624H164.095L161.987 188.944V187.256L164.26 185.809H166.062ZM171.572 195.127C169.655 195.127 168.252 193.997 168.221 192.41H170.074C170.119 193.127 170.772 193.623 171.572 193.616C172.524 193.623 173.204 192.95 173.197 191.991C173.204 191.014 172.512 190.334 171.547 190.328C170.855 190.328 170.373 190.588 170.1 191.103H168.373L168.868 185.809H174.53V187.37H170.442L170.188 189.693H170.265C170.601 189.243 171.299 188.913 172.105 188.919C173.794 188.913 175.051 190.176 175.051 191.94C175.051 193.8 173.642 195.127 171.572 195.127Z" fill="#333333"/>
<path d="M168.494 154.127C166.393 154.127 164.888 153.022 164.888 151.524C164.888 150.369 165.777 149.43 166.919 149.252V149.188C165.923 148.998 165.237 148.167 165.244 147.157C165.237 145.729 166.615 144.682 168.494 144.682C170.373 144.682 171.75 145.729 171.756 147.157C171.75 148.167 171.045 148.998 170.081 149.188V149.252C171.198 149.43 172.099 150.369 172.099 151.524C172.099 153.022 170.588 154.127 168.494 154.127ZM166.881 151.334C166.875 152.121 167.522 152.673 168.494 152.667C169.465 152.673 170.112 152.121 170.106 151.334C170.112 150.541 169.427 149.957 168.494 149.95C167.561 149.957 166.875 150.534 166.881 151.334ZM167.11 147.348C167.104 148.084 167.681 148.598 168.494 148.604C169.3 148.598 169.884 148.084 169.89 147.348C169.884 146.63 169.312 146.129 168.494 146.129C167.668 146.129 167.104 146.63 167.11 147.348Z" fill="#333333"/>
<path d="M169.138 103.809V113H167.221V105.624H167.17L165.062 106.944V105.256L167.335 103.809H169.138Z" fill="#333333"/>
<path d="M163.619 71L161.193 62.5156H163.115L164.545 68.4453H164.615L166.174 62.5156H167.826L169.385 68.457H169.455L170.885 62.5156H172.807L170.381 71H168.658L167.041 65.3984H166.971L165.342 71H163.619Z" fill="#BBBBBB"/>
<path d="M210.184 278.127C208.165 278.127 206.718 277.016 206.68 275.41H208.609C208.641 276.096 209.308 276.546 210.196 276.553C211.11 276.546 211.764 276.039 211.758 275.296C211.764 274.547 211.098 274.02 210.019 274.014H209.168V272.604H210.019C210.926 272.604 211.561 272.109 211.555 271.386C211.561 270.681 211.021 270.199 210.209 270.205C209.396 270.199 208.73 270.656 208.698 271.36H206.87C206.902 269.78 208.324 268.682 210.209 268.682C212.126 268.682 213.402 269.818 213.396 271.271C213.402 272.3 212.685 273.03 211.656 273.214V273.29C213.008 273.455 213.751 274.274 213.738 275.423C213.751 276.997 212.259 278.127 210.184 278.127ZM218.651 278.127C216.347 278.127 214.957 276.413 214.957 273.404C214.957 270.402 216.36 268.682 218.651 268.682C220.943 268.682 222.346 270.402 222.346 273.404C222.346 276.426 220.949 278.127 218.651 278.127ZM216.912 273.404C216.899 275.524 217.585 276.553 218.651 276.553C219.718 276.553 220.397 275.524 220.391 273.404C220.397 271.303 219.711 270.25 218.651 270.243C217.591 270.25 216.912 271.303 216.912 273.404Z" fill="#333333"/>
<path d="M207.105 236L207.092 234.616L210.393 231.582C211.25 230.763 211.713 230.255 211.713 229.525C211.713 228.707 211.098 228.199 210.253 228.205C209.39 228.199 208.825 228.745 208.832 229.627H207.016C207.01 227.831 208.343 226.682 210.279 226.682C212.247 226.682 213.554 227.805 213.554 229.398C213.554 230.446 213.046 231.303 211.155 233.017L209.758 234.375V234.426H213.681V236H207.105ZM218.442 236.127C216.423 236.127 214.976 235.016 214.938 233.41H216.868C216.899 234.096 217.566 234.546 218.455 234.553C219.369 234.546 220.022 234.039 220.016 233.296C220.022 232.547 219.356 232.02 218.277 232.014H217.426V230.604H218.277C219.185 230.604 219.819 230.109 219.813 229.386C219.819 228.681 219.28 228.199 218.467 228.205C217.655 228.199 216.988 228.656 216.957 229.36H215.128C215.16 227.78 216.582 226.682 218.467 226.682C220.384 226.682 221.66 227.818 221.654 229.271C221.66 230.3 220.943 231.03 219.915 231.214V231.29C221.267 231.455 222.009 232.274 221.997 233.423C222.009 234.997 220.518 236.127 218.442 236.127Z" fill="#333333"/>
<path d="M211.961 185.809V195H210.044V187.624H209.993L207.886 188.944V187.256L210.158 185.809H211.961ZM217.648 195.127C215.75 195.121 213.935 193.984 213.941 190.62C213.948 187.516 215.427 185.682 217.725 185.682C219.572 185.682 220.841 186.85 221.025 188.36H219.146C218.994 187.719 218.467 187.319 217.725 187.319C216.474 187.319 215.82 188.443 215.808 190.252H215.896C216.322 189.433 217.229 188.957 218.245 188.957C219.902 188.957 221.133 190.195 221.127 191.928C221.133 193.794 219.724 195.133 217.648 195.127ZM215.998 191.979C216.011 192.88 216.696 193.623 217.636 193.616C218.582 193.623 219.273 192.905 219.273 191.979C219.273 191.058 218.594 190.347 217.661 190.341C216.722 190.347 216.011 191.083 215.998 191.979Z" fill="#333333"/>
<path d="M213.398 144.682C215.303 144.688 217.105 145.824 217.105 149.163C217.112 152.286 215.633 154.127 213.322 154.127C211.475 154.127 210.206 152.965 210.021 151.41H211.9C212.059 152.089 212.586 152.489 213.322 152.489C214.573 152.489 215.233 151.366 215.239 149.531H215.163C214.731 150.344 213.824 150.826 212.802 150.826C211.151 150.826 209.933 149.582 209.92 147.868C209.92 146.021 211.323 144.675 213.398 144.682ZM211.786 147.817C211.786 148.725 212.453 149.43 213.398 149.43C214.332 149.43 215.049 148.687 215.049 147.805C215.036 146.929 214.351 146.186 213.411 146.18C212.472 146.186 211.773 146.903 211.786 147.817Z" fill="#333333"/>
<path d="M210.756 113L210.744 111.616L214.044 108.582C214.901 107.763 215.365 107.255 215.365 106.525C215.365 105.707 214.749 105.199 213.905 105.205C213.042 105.199 212.477 105.745 212.483 106.627H210.667C210.661 104.831 211.994 103.682 213.93 103.682C215.898 103.682 217.206 104.805 217.206 106.398C217.206 107.446 216.698 108.303 214.806 110.017L213.41 111.375V111.426H217.333V113H210.756Z" fill="#333333"/>
<path d="M209.531 63.9688V62.5156H216.48V63.9688H213.879V71H212.133V63.9688H209.531Z" fill="#BBBBBB"/>
<path d="M261.138 268.809V278H259.221V270.624H259.17L257.062 271.944V270.256L259.335 268.809H261.138Z" fill="#999999"/>
<path d="M252.086 236L252.073 234.616L255.374 231.582C256.231 230.763 256.694 230.255 256.694 229.525C256.694 228.707 256.079 228.199 255.234 228.205C254.371 228.199 253.806 228.745 253.812 229.627H251.997C251.991 227.831 253.324 226.682 255.26 226.682C257.228 226.682 258.535 227.805 258.535 229.398C258.535 230.446 258.027 231.303 256.136 233.017L254.739 234.375V234.426H258.662V236H252.086ZM259.665 234.375V232.864L263.55 226.809H265.949V232.839H267.117V234.375H265.949V236H264.134V234.375H259.665ZM261.595 232.839H264.159V228.903H264.07L261.595 232.763V232.839Z" fill="#333333"/>
<path d="M257.899 185.809V195H255.982V187.624H255.931L253.824 188.944V187.256L256.096 185.809H257.899ZM260.387 195L264.259 187.434V187.37H259.752V185.809H266.24V187.396L262.368 195H260.387Z" fill="#333333"/>
<path d="M256.847 144.809V154H254.93V146.624H254.879L252.771 147.944V146.256L255.044 144.809H256.847ZM262.547 154.127C260.243 154.127 258.853 152.413 258.853 149.404C258.853 146.402 260.255 144.682 262.547 144.682C264.838 144.682 266.241 146.402 266.241 149.404C266.241 152.426 264.845 154.127 262.547 154.127ZM260.808 149.404C260.795 151.524 261.48 152.553 262.547 152.553C263.613 152.553 264.292 151.524 264.286 149.404C264.292 147.303 263.607 146.25 262.547 146.243C261.487 146.25 260.808 147.303 260.808 149.404Z" fill="#333333"/>
<path d="M259.475 113.127C257.456 113.127 256.009 112.016 255.971 110.41H257.9C257.932 111.096 258.599 111.546 259.487 111.553C260.401 111.546 261.055 111.039 261.049 110.296C261.055 109.547 260.389 109.02 259.31 109.014H258.459V107.604H259.31C260.217 107.604 260.852 107.109 260.846 106.386C260.852 105.681 260.312 105.199 259.5 105.205C258.688 105.199 258.021 105.656 257.989 106.36H256.161C256.193 104.78 257.615 103.682 259.5 103.682C261.417 103.682 262.693 104.818 262.687 106.271C262.693 107.3 261.976 108.03 260.947 108.214V108.29C262.299 108.455 263.042 109.274 263.029 110.423C263.042 111.997 261.55 113.127 259.475 113.127Z" fill="#333333"/>
<path d="M255.84 71V62.5156H261.43V63.9688H257.598V66.0312H261.066V67.4844H257.598V71H255.84Z" fill="#BBBBBB"/>
<path d="M301.756 278L301.744 276.616L305.044 273.582C305.901 272.763 306.365 272.255 306.365 271.525C306.365 270.707 305.749 270.199 304.905 270.205C304.042 270.199 303.477 270.745 303.483 271.627H301.667C301.661 269.831 302.994 268.682 304.93 268.682C306.898 268.682 308.206 269.805 308.206 271.398C308.206 272.446 307.698 273.303 305.806 275.017L304.41 276.375V276.426H308.333V278H301.756Z" fill="#999999"/>
<path d="M299.181 236L299.168 234.616L302.469 231.582C303.326 230.763 303.79 230.255 303.79 229.525C303.79 228.707 303.174 228.199 302.33 228.205C301.466 228.199 300.901 228.745 300.908 229.627H299.092C299.086 227.831 300.419 226.682 302.355 226.682C304.323 226.682 305.63 227.805 305.63 229.398C305.63 230.446 305.123 231.303 303.231 233.017L301.834 234.375V234.426H305.757V236H299.181ZM310.493 236.127C308.576 236.127 307.173 234.997 307.141 233.41H308.995C309.039 234.127 309.693 234.623 310.493 234.616C311.445 234.623 312.124 233.95 312.118 232.991C312.124 232.014 311.432 231.334 310.467 231.328C309.775 231.328 309.293 231.588 309.02 232.103H307.293L307.789 226.809H313.451V228.37H309.363L309.109 230.693H309.185C309.521 230.243 310.22 229.913 311.026 229.919C312.714 229.913 313.971 231.176 313.971 232.94C313.971 234.8 312.562 236.127 310.493 236.127Z" fill="#333333"/>
<path d="M302.955 185.809V195H301.038V187.624H300.987L298.879 188.944V187.256L301.152 185.809H302.955ZM308.541 195.127C306.439 195.127 304.935 194.022 304.935 192.524C304.935 191.369 305.824 190.43 306.966 190.252V190.188C305.97 189.998 305.284 189.167 305.291 188.157C305.284 186.729 306.662 185.682 308.541 185.682C310.419 185.682 311.797 186.729 311.803 188.157C311.797 189.167 311.092 189.998 310.127 190.188V190.252C311.245 190.43 312.146 191.369 312.146 192.524C312.146 194.022 310.635 195.127 308.541 195.127ZM306.928 192.334C306.922 193.121 307.569 193.673 308.541 193.667C309.512 193.673 310.159 193.121 310.153 192.334C310.159 191.541 309.474 190.957 308.541 190.95C307.607 190.957 306.922 191.534 306.928 192.334ZM307.157 188.348C307.15 189.084 307.728 189.598 308.541 189.604C309.347 189.598 309.931 189.084 309.937 188.348C309.931 187.63 309.359 187.129 308.541 187.129C307.715 187.129 307.15 187.63 307.157 188.348Z" fill="#333333"/>
<path d="M305.091 144.809V154H303.174V146.624H303.123L301.016 147.944V146.256L303.288 144.809H305.091ZM311.185 144.809V154H309.268V146.624H309.217L307.109 147.944V146.256L309.382 144.809H311.185Z" fill="#333333"/>
<path d="M301.799 111.375V109.864L305.684 103.809H308.083V109.839H309.251V111.375H308.083V113H306.268V111.375H301.799ZM303.729 109.839H306.293V105.903H306.205L303.729 109.763V109.839Z" fill="#333333"/>
<path d="M306.541 64.9414C306.471 64.2676 305.938 63.875 305.076 63.875C304.186 63.875 303.688 64.2852 303.682 64.8477C303.676 65.4629 304.309 65.7383 305.041 65.9023L305.803 66.0898C307.256 66.4238 308.34 67.1621 308.346 68.5742C308.34 70.127 307.133 71.123 305.064 71.1172C303.014 71.123 301.707 70.1738 301.654 68.3516H303.365C303.424 69.207 304.104 69.6406 305.041 69.6406C305.967 69.6406 306.564 69.207 306.564 68.5742C306.564 67.9941 306.037 67.7246 305.111 67.4961L304.186 67.2734C302.756 66.9219 301.877 66.207 301.877 64.9648C301.871 63.4238 303.23 62.3984 305.088 62.3984C306.969 62.3984 308.205 63.4414 308.229 64.9414H306.541Z" fill="#BBBBBB"/>
</svg>
