<svg width="33" height="17" viewBox="0 0 33 17" fill="none" xmlns="http://www.w3.org/2000/svg">
<path d="M1.3335 9.44444L6.85658 2.44854C7.50248 1.6304 8.66844 1.44552 9.53575 2.02372L10.6668 2.77778" stroke="white" stroke-width="1.5"/>
<path d="M21.3335 9.88889L28.084 2.27798C28.7369 1.54196 29.828 1.39002 30.6571 1.9197L32.0002 2.77778" stroke="white" stroke-width="1.5"/>
<line x1="10.0762" y1="12.6953" x2="13.6317" y2="12.6953" stroke="white" stroke-width="1.5"/>
<mask id="path-4-inside-1_1096_94300" fill="white">
<path fill-rule="evenodd" clip-rule="evenodd" d="M5.33333 6.33398C2.38782 6.33398 0 8.7218 0 11.6673C0 14.6128 2.38782 17.0007 5.33333 17.0007C8.27885 17.0007 10.6667 14.6128 10.6667 11.6673C10.6667 8.7218 8.27885 6.33398 5.33333 6.33398ZM8.38889 11.8151C8.38889 13.4314 7.11009 14.7227 5.55576 14.7227C4.92011 14.7227 4.33371 14.5084 3.86013 14.1447C3.64114 13.9764 3.32724 14.0176 3.15903 14.2366C2.99082 14.4556 3.03198 14.7695 3.25098 14.9377C3.89166 15.4298 4.6904 15.7227 5.55576 15.7227C7.6831 15.7227 9.38889 13.9627 9.38889 11.8151C9.38889 10.9988 9.14284 10.239 8.72115 9.61072C8.56726 9.38144 8.25663 9.32033 8.02735 9.47422C7.79806 9.62812 7.73695 9.93875 7.89085 10.168C8.2046 10.6355 8.38889 11.2021 8.38889 11.8151Z"/>
</mask>
<path fill-rule="evenodd" clip-rule="evenodd" d="M5.33333 6.33398C2.38782 6.33398 0 8.7218 0 11.6673C0 14.6128 2.38782 17.0007 5.33333 17.0007C8.27885 17.0007 10.6667 14.6128 10.6667 11.6673C10.6667 8.7218 8.27885 6.33398 5.33333 6.33398ZM8.38889 11.8151C8.38889 13.4314 7.11009 14.7227 5.55576 14.7227C4.92011 14.7227 4.33371 14.5084 3.86013 14.1447C3.64114 13.9764 3.32724 14.0176 3.15903 14.2366C2.99082 14.4556 3.03198 14.7695 3.25098 14.9377C3.89166 15.4298 4.6904 15.7227 5.55576 15.7227C7.6831 15.7227 9.38889 13.9627 9.38889 11.8151C9.38889 10.9988 9.14284 10.239 8.72115 9.61072C8.56726 9.38144 8.25663 9.32033 8.02735 9.47422C7.79806 9.62812 7.73695 9.93875 7.89085 10.168C8.2046 10.6355 8.38889 11.2021 8.38889 11.8151Z" fill="white"/>
<path d="M3.86013 14.1447L2.64183 15.7308L2.64183 15.7308L3.86013 14.1447ZM3.15903 14.2366L1.57292 13.0183L1.57292 13.0183L3.15903 14.2366ZM3.25098 14.9377L2.03267 16.5238L2.03268 16.5238L3.25098 14.9377ZM8.72115 9.61072L10.3818 8.49611L10.3818 8.49611L8.72115 9.61072ZM8.02735 9.47422L6.91273 7.81361L6.91273 7.81361L8.02735 9.47422ZM7.89085 10.168L6.23024 11.2826L7.89085 10.168ZM2 11.6673C2 9.82637 3.49238 8.33398 5.33333 8.33398V4.33398C1.28325 4.33398 -2 7.61723 -2 11.6673H2ZM5.33333 15.0007C3.49238 15.0007 2 13.5083 2 11.6673H-2C-2 15.7174 1.28325 19.0007 5.33333 19.0007V15.0007ZM8.66667 11.6673C8.66667 13.5083 7.17428 15.0007 5.33333 15.0007V19.0007C9.38342 19.0007 12.6667 15.7174 12.6667 11.6673H8.66667ZM5.33333 8.33398C7.17428 8.33398 8.66667 9.82637 8.66667 11.6673H12.6667C12.6667 7.61723 9.38342 4.33398 5.33333 4.33398V8.33398ZM5.55576 16.7227C8.25393 16.7227 10.3889 14.4963 10.3889 11.8151H6.38889C6.38889 12.3665 5.96625 12.7227 5.55576 12.7227V16.7227ZM2.64183 15.7308C3.44973 16.3513 4.46084 16.7227 5.55576 16.7227V12.7227C5.37937 12.7227 5.21768 12.6655 5.07844 12.5586L2.64183 15.7308ZM4.74513 15.4549C4.2405 16.1119 3.29881 16.2354 2.64183 15.7308L5.07844 12.5586C3.98346 11.7175 2.41399 11.9233 1.57292 13.0183L4.74513 15.4549ZM4.46929 13.3516C5.12627 13.8562 5.24977 14.7979 4.74514 15.4549L1.57292 13.0183C0.73186 14.1133 0.937697 15.6828 2.03267 16.5238L4.46929 13.3516ZM5.55576 13.7227C5.14991 13.7227 4.77584 13.5871 4.46928 13.3516L2.03268 16.5238C3.00749 17.2726 4.23089 17.7227 5.55576 17.7227V13.7227ZM7.38889 11.8151C7.38889 12.9017 6.53548 13.7227 5.55576 13.7227V17.7227C8.83072 17.7227 11.3889 15.0238 11.3889 11.8151H7.38889ZM7.06054 10.7253C7.26638 11.032 7.38889 11.4054 7.38889 11.8151H11.3889C11.3889 10.5923 11.0193 9.44593 10.3818 8.49611L7.06054 10.7253ZM9.14196 11.1348C8.45411 11.5965 7.52223 11.4132 7.06054 10.7253L10.3818 8.49611C9.61228 7.34969 8.05914 7.04413 6.91273 7.81361L9.14196 11.1348ZM9.55146 9.05341C10.0131 9.74126 9.82981 10.6731 9.14197 11.1348L6.91273 7.81361C5.76632 8.5831 5.46075 10.1362 6.23024 11.2826L9.55146 9.05341ZM10.3889 11.8151C10.3889 10.7956 10.0811 9.84251 9.55146 9.05341L6.23024 11.2826C6.32809 11.4284 6.38889 11.6086 6.38889 11.8151H10.3889Z" fill="white" mask="url(#path-4-inside-1_1096_94300)"/>
<mask id="path-6-inside-2_1096_94300" fill="white">
<path fill-rule="evenodd" clip-rule="evenodd" d="M17.7767 6.33398C14.8312 6.33398 12.4434 8.7218 12.4434 11.6673C12.4434 14.6128 14.8312 17.0007 17.7767 17.0007C20.7222 17.0007 23.11 14.6128 23.11 11.6673C23.11 8.7218 20.7222 6.33398 17.7767 6.33398ZM20.8322 11.8153C20.8322 13.4316 19.5535 14.7229 17.9991 14.7229C17.3635 14.7229 16.7771 14.5086 16.3035 14.1448C16.0845 13.9766 15.7706 14.0178 15.6024 14.2368C15.4342 14.4558 15.4753 14.7697 15.6943 14.9379C16.335 15.43 17.1338 15.7229 17.9991 15.7229C20.1265 15.7229 21.8322 13.9629 21.8322 11.8153C21.8322 10.999 21.5862 10.2391 21.1645 9.61089C21.0106 9.3816 20.7 9.32049 20.4707 9.47439C20.2414 9.62828 20.1803 9.93891 20.3342 10.1682C20.648 10.6356 20.8322 11.2023 20.8322 11.8153Z"/>
</mask>
<path fill-rule="evenodd" clip-rule="evenodd" d="M17.7767 6.33398C14.8312 6.33398 12.4434 8.7218 12.4434 11.6673C12.4434 14.6128 14.8312 17.0007 17.7767 17.0007C20.7222 17.0007 23.11 14.6128 23.11 11.6673C23.11 8.7218 20.7222 6.33398 17.7767 6.33398ZM20.8322 11.8153C20.8322 13.4316 19.5535 14.7229 17.9991 14.7229C17.3635 14.7229 16.7771 14.5086 16.3035 14.1448C16.0845 13.9766 15.7706 14.0178 15.6024 14.2368C15.4342 14.4558 15.4753 14.7697 15.6943 14.9379C16.335 15.43 17.1338 15.7229 17.9991 15.7229C20.1265 15.7229 21.8322 13.9629 21.8322 11.8153C21.8322 10.999 21.5862 10.2391 21.1645 9.61089C21.0106 9.3816 20.7 9.32049 20.4707 9.47439C20.2414 9.62828 20.1803 9.93891 20.3342 10.1682C20.648 10.6356 20.8322 11.2023 20.8322 11.8153Z" fill="white"/>
<path d="M16.3035 14.1448L15.0852 15.7309L15.0852 15.7309L16.3035 14.1448ZM15.6024 14.2368L14.0163 13.0185L14.0163 13.0185L15.6024 14.2368ZM15.6943 14.9379L14.476 16.524L14.476 16.524L15.6943 14.9379ZM21.1645 9.61089L22.8251 8.49627L22.8251 8.49627L21.1645 9.61089ZM20.4707 9.47439L19.3561 7.81378L19.3561 7.81378L20.4707 9.47439ZM20.3342 10.1682L18.6736 11.2828L20.3342 10.1682ZM14.4434 11.6673C14.4434 9.82637 15.9357 8.33398 17.7767 8.33398V4.33398C13.7266 4.33398 10.4434 7.61723 10.4434 11.6673H14.4434ZM17.7767 15.0007C15.9357 15.0007 14.4434 13.5083 14.4434 11.6673H10.4434C10.4434 15.7174 13.7266 19.0007 17.7767 19.0007V15.0007ZM21.11 11.6673C21.11 13.5083 19.6176 15.0007 17.7767 15.0007V19.0007C21.8268 19.0007 25.11 15.7174 25.11 11.6673H21.11ZM17.7767 8.33398C19.6176 8.33398 21.11 9.82637 21.11 11.6673H25.11C25.11 7.61723 21.8268 4.33398 17.7767 4.33398V8.33398ZM17.9991 16.7229C20.6973 16.7229 22.8322 14.4965 22.8322 11.8153H18.8322C18.8322 12.3667 18.4096 12.7229 17.9991 12.7229V16.7229ZM15.0852 15.7309C15.8931 16.3515 16.9042 16.7229 17.9991 16.7229V12.7229C17.8227 12.7229 17.661 12.6657 17.5218 12.5587L15.0852 15.7309ZM17.1885 15.4551C16.6839 16.1121 15.7422 16.2356 15.0852 15.7309L17.5218 12.5587C16.4268 11.7177 14.8573 11.9235 14.0163 13.0185L17.1885 15.4551ZM16.9126 13.3518C17.5696 13.8564 17.6931 14.7981 17.1885 15.4551L14.0163 13.0185C13.1752 14.1134 13.3811 15.6829 14.476 16.524L16.9126 13.3518ZM17.9991 13.7229C17.5933 13.7229 17.2192 13.5872 16.9126 13.3518L14.476 16.524C15.4508 17.2727 16.6743 17.7229 17.9991 17.7229V13.7229ZM19.8322 11.8153C19.8322 12.9019 18.9788 13.7229 17.9991 13.7229V17.7229C21.2741 17.7229 23.8322 15.0239 23.8322 11.8153H19.8322ZM19.5039 10.7255C19.7097 11.0322 19.8322 11.4056 19.8322 11.8153H23.8322C23.8322 10.5924 23.4627 9.44609 22.8251 8.49627L19.5039 10.7255ZM21.5853 11.135C20.8975 11.5967 19.9656 11.4133 19.5039 10.7255L22.8251 8.49627C22.0556 7.34986 20.5025 7.04429 19.3561 7.81378L21.5853 11.135ZM21.9948 9.05358C22.4565 9.74143 22.2732 10.6733 21.5853 11.135L19.3561 7.81378C18.2097 8.58326 17.9041 10.1364 18.6736 11.2828L21.9948 9.05358ZM22.8322 11.8153C22.8322 10.7958 22.5245 9.84268 21.9948 9.05358L18.6736 11.2828C18.7714 11.4286 18.8322 11.6087 18.8322 11.8153H22.8322Z" fill="white" mask="url(#path-6-inside-2_1096_94300)"/>
</svg>
