<svg width="34" height="32" viewBox="0 0 34 32" fill="none" xmlns="http://www.w3.org/2000/svg">
<path fill-rule="evenodd" clip-rule="evenodd" d="M13.6707 0.770757L14.8127 0.630874C17.6497 0.283356 20.2327 2.29986 20.5803 5.13691L21.0825 9.23745C21.1161 9.51154 20.9211 9.76096 20.647 9.79453L17.7467 10.1498C17.4726 10.1834 17.2776 10.4328 17.3112 10.7069L18.2925 18.7182C18.3261 18.9923 18.1311 19.2417 17.857 19.2753L6.68425 20.6439C6.41016 20.6774 6.16074 20.4825 6.12717 20.2084L5.14584 12.197C5.11227 11.923 4.86285 11.728 4.58876 11.7615L1.68842 12.1168C1.41433 12.1504 1.16491 11.9554 1.13134 11.6813L0.629055 7.58078C0.281538 4.74373 2.29841 2.16377 5.13547 1.81626L6.2805 1.676C6.54695 1.64336 6.78751 1.82909 6.87141 2.08408C7.31893 3.44414 8.67663 4.34599 10.1511 4.16537L10.5153 4.12076C11.9926 3.93981 13.0903 2.7372 13.1958 1.3094C13.2156 1.04169 13.4043 0.803395 13.6707 0.770757ZM9.52841 9.03261C8.68355 9.42074 8.49999 10.4972 8.86739 11.2984C9.46375 12.587 10.9865 13.0852 11.3957 13.0351C11.7974 12.9859 13.1682 12.1179 13.4226 10.7404C13.5857 9.87421 13.1478 8.8739 12.2342 8.70116C11.7618 8.61286 11.1836 8.79139 10.9371 9.29087C10.5564 8.8836 9.97218 8.82439 9.52841 9.03261Z" fill="#333333"/>
<path fill-rule="evenodd" clip-rule="evenodd" d="M21.3584 12.1183L17.3304 27.1508C17.1875 27.6843 17.504 28.2326 18.0375 28.3756L22.5577 29.5868L25.4093 18.9446C25.4717 18.7118 25.7109 18.5736 25.9437 18.636C26.1765 18.6984 26.3146 18.9377 26.2523 19.1704L23.4007 29.8126L27.907 31.0201C28.4405 31.163 28.9888 30.8464 29.1317 30.313L33.1597 15.2804C33.3026 14.747 32.9861 14.1986 32.4526 14.0557L22.5831 11.4112C22.0496 11.2682 21.5013 11.5848 21.3584 12.1183Z" fill="#333333"/>
</svg>
