<svg width="27" height="25" viewBox="0 0 27 25" fill="none" xmlns="http://www.w3.org/2000/svg">
<path fill-rule="evenodd" clip-rule="evenodd" d="M17.888 0H19.5434C23.2865 0 26.323 3.03246 26.323 6.77559V12.3405C26.323 12.6167 26.0992 12.8405 25.823 12.8405H21.6868C21.4107 12.8405 21.1868 13.0644 21.1868 13.3405V24.22C21.1868 24.4961 20.963 24.72 20.6868 24.72H5.6362C5.36006 24.72 5.1362 24.4961 5.1362 24.22V13.3405C5.1362 13.0644 4.91235 12.8405 4.6362 12.8405H0.5C0.223858 12.8405 0 12.6167 0 12.3405V6.77559C0 3.03246 3.03246 0 6.77559 0H8.43509C8.70354 0 8.92074 0.213117 8.9632 0.478179C9.26935 2.38952 10.9246 3.85215 12.9213 3.85215H13.4018C15.4022 3.85215 17.0543 2.38953 17.3599 0.478188C17.4023 0.213115 17.6195 0 17.888 0ZM11.341 10.0801C10.181 10.4501 9.77101 11.8201 10.121 12.9201C10.691 14.6901 12.591 15.5801 13.131 15.5801C13.661 15.5801 15.581 14.6701 16.131 12.9201C16.481 11.8201 16.071 10.4501 14.911 10.0801C14.311 9.89012 13.531 10.0301 13.131 10.6401C12.701 10.0501 11.951 9.88012 11.341 10.0801Z" fill="#333333"/>
</svg>
