<svg width="33" height="17" viewBox="0 0 33 17" fill="none" xmlns="http://www.w3.org/2000/svg">
<path d="M1.3335 9.44444L6.85658 2.44854C7.50248 1.6304 8.66844 1.44552 9.53575 2.02372L10.6668 2.77778" stroke="#333333" stroke-width="1.5"/>
<rect x="1" y="7.33203" width="8.66667" height="8.66667" rx="4.33333" fill="#333333" stroke="#333333" stroke-width="2"/>
<rect x="13.4443" y="7.33203" width="8.66667" height="8.66667" rx="4.33333" fill="#333333" stroke="#333333" stroke-width="2"/>
<path d="M21.3335 9.88889L28.084 2.27798C28.7369 1.54196 29.828 1.39002 30.6571 1.9197L32.0002 2.77778" stroke="#333333" stroke-width="1.5"/>
<line x1="10.0762" y1="12.6953" x2="13.6317" y2="12.6953" stroke="#333333" stroke-width="1.5"/>
<path d="M3.55534 14.5411C4.11247 14.9691 4.80504 15.2227 5.55554 15.2227C7.39638 15.2227 8.88867 13.697 8.88867 11.815C8.88867 11.1004 8.6735 10.4372 8.30578 9.88932" stroke="white" stroke-linecap="round"/>
<path d="M16.0002 14.5411C16.5573 14.9691 17.2499 15.2227 18.0004 15.2227C19.8412 15.2227 21.3335 13.697 21.3335 11.815C21.3335 11.1004 21.1183 10.4372 20.7506 9.88932" stroke="white" stroke-linecap="round"/>
</svg>
