<svg width="24" height="19" viewBox="0 0 24 19" fill="none" xmlns="http://www.w3.org/2000/svg">
<rect x="0.895508" y="15.2266" width="22.1764" height="2.76469" fill="white"/>
<path d="M0.834961 1.16406H9.15915V14.6915H0.834961V1.16406Z" fill="#333333"/>
<path d="M17.689 9.78161V14.6915L4.16149 14.6915L4.16149 9.78161L17.689 9.78161Z" fill="#333333"/>
<path d="M13.8139 10.2705C10.8519 8.57548 9.71504 4.99615 9.51688 3.41837L9.12002 2.98318L7.21954 4.07231L7.99148 11.9536L13.8139 12.2507V10.2705Z" fill="#333333"/>
<path d="M17.3882 10.3672H18.5053C21.034 10.3672 23.0839 12.4171 23.0839 14.9458H17.3882V10.3672Z" fill="white"/>
<path d="M2.21127 0.10938H7.65107C8.12678 0.108323 8.58882 0.268524 8.96177 0.563843C9.33473 0.859162 9.59658 1.27216 9.70461 1.73545C10.6098 5.54079 11.9845 7.94638 13.7866 8.97734C14.2387 9.23428 14.7323 9.41016 15.245 9.49701H15.3204C15.8175 9.56672 16.3189 9.60033 16.8208 9.59759H17.0303C18.5335 9.49114 20.0367 9.80454 21.3721 10.5028H21.4308C22.192 10.9255 22.8264 11.5438 23.2685 12.2939C23.7106 13.0439 23.9443 13.8985 23.9453 14.7692V17.0071C23.9431 17.491 23.7499 17.9545 23.4077 18.2967C23.0655 18.6389 22.602 18.8321 22.1181 18.8343H1.876C1.39206 18.8321 0.928579 18.6389 0.586384 18.2967C0.244186 17.9545 0.0509701 17.491 0.0487652 17.0071V9.46348L0.0990543 2.20483C0.103476 1.64755 0.327965 1.11459 0.723602 0.722095C1.11924 0.329596 1.65397 0.109363 2.21127 0.10938ZM7.65107 1.24092H2.21127C1.95184 1.24089 1.70277 1.34279 1.51777 1.52466C1.33276 1.70653 1.22661 1.95382 1.22222 2.21322L1.17193 9.46348V17.0071C1.17413 17.1924 1.24928 17.3693 1.38108 17.4996C1.51288 17.6298 1.69071 17.7028 1.876 17.7028H22.1265C22.3117 17.7028 22.4896 17.6298 22.6214 17.4996C22.7532 17.3693 22.8283 17.1924 22.8305 17.0071V14.8278C22.83 14.1584 22.6501 13.5014 22.3096 12.925C21.9691 12.3486 21.4804 11.874 20.8943 11.5506H20.844C19.6935 10.9606 18.4043 10.6941 17.1141 10.7794H16.7202C16.1585 10.7846 15.5975 10.7397 15.0438 10.6453C14.4008 10.5376 13.782 10.3162 13.2166 9.99154C11.096 8.77617 9.5705 6.11076 8.59821 2.0372C8.54722 1.82219 8.42511 1.63071 8.25168 1.49379C8.07824 1.35687 7.86365 1.28254 7.64268 1.28283L7.65107 1.24092Z" fill="#333333"/>
<path d="M1.17475 14.3828C1.02581 14.3828 0.882967 14.442 0.777649 14.5473C0.672333 14.6526 0.613165 14.7955 0.613165 14.9444C0.613165 15.0933 0.672333 15.2362 0.777649 15.3415C0.882967 15.4468 1.02581 15.506 1.17475 15.506H22.6909C22.8398 15.506 22.9826 15.4468 23.088 15.3415C23.1933 15.2362 23.2524 15.0933 23.2524 14.9444C23.2506 14.8003 23.1942 14.6623 23.0947 14.5581C22.9951 14.4539 22.8598 14.3913 22.716 14.3828H1.17475Z" fill="#333333"/>
<path d="M17.7342 9.78125C17.59 9.78086 17.4511 9.83513 17.3453 9.93311C17.2395 10.0311 17.1749 10.1655 17.1643 10.3093L17.1223 14.6678C17.1244 14.8169 17.184 14.9594 17.2887 15.0656C17.3933 15.1718 17.5349 15.2335 17.6839 15.2378C17.8272 15.2381 17.9652 15.1835 18.0696 15.0854C18.174 14.9872 18.2369 14.8528 18.2455 14.7098V10.3512C18.2482 10.2092 18.1969 10.0714 18.1021 9.96559C18.0072 9.85982 17.8757 9.79395 17.7342 9.78125Z" fill="#333333"/>
<path d="M5.46943 5.73439C5.98499 5.73439 6.48898 5.88727 6.91766 6.1737C7.34633 6.46014 7.68045 6.86726 7.87774 7.34358C8.07504 7.8199 8.12666 8.34402 8.02608 8.84968C7.9255 9.35534 7.67723 9.81982 7.31267 10.1844C6.94811 10.5489 6.48364 10.7972 5.97798 10.8978C5.47232 10.9984 4.94819 10.9467 4.47187 10.7495C3.99555 10.5522 3.58843 10.218 3.302 9.78936C3.01556 9.36069 2.86268 8.8567 2.86268 8.34113C2.86158 7.9985 2.92824 7.65903 3.05885 7.34227C3.18946 7.0255 3.38143 6.7377 3.62371 6.49542C3.86599 6.25314 4.1538 6.06117 4.47056 5.93056C4.78732 5.79995 5.12679 5.73328 5.46943 5.73439ZM5.46943 6.86593C5.17918 6.87253 4.89733 6.96463 4.65919 7.13068C4.42104 7.29674 4.23719 7.52937 4.13066 7.79944C4.02413 8.06952 3.99965 8.36502 4.0603 8.64893C4.12095 8.93285 4.26403 9.19256 4.47162 9.39553C4.6792 9.5985 4.94206 9.73571 5.22727 9.78996C5.51247 9.84422 5.80735 9.81311 6.07496 9.70054C6.34257 9.58797 6.57101 9.39893 6.73168 9.15712C6.89234 8.9153 6.97808 8.63146 6.97815 8.34113C6.9782 8.14455 6.93896 7.94995 6.86274 7.76875C6.78652 7.58755 6.67485 7.42341 6.53429 7.28598C6.39374 7.14854 6.22713 7.04059 6.04426 6.96846C5.8614 6.89632 5.66596 6.86147 5.46943 6.86593Z" fill="white"/>
</svg>
