<svg width="24" height="19" viewBox="0 0 24 19" fill="none" xmlns="http://www.w3.org/2000/svg">
<path d="M2.21127 0.107427H7.65107C8.12678 0.10637 8.58882 0.266571 8.96177 0.56189C9.33473 0.857208 9.59658 1.27021 9.70461 1.7335C10.6098 5.53884 11.9845 7.94442 13.7866 8.97538C14.2387 9.23233 14.7323 9.4082 15.245 9.49506H15.3204C15.8175 9.56477 16.3189 9.59838 16.8208 9.59564H17.0303C18.5335 9.48918 20.0367 9.80259 21.3721 10.5009H21.4308C22.192 10.9235 22.8264 11.5418 23.2685 12.2919C23.7106 13.042 23.9443 13.8966 23.9453 14.7672V17.0052C23.9431 17.4891 23.7499 17.9526 23.4077 18.2948C23.0655 18.637 22.602 18.8302 22.1181 18.8324H1.876C1.39206 18.8302 0.928579 18.637 0.586384 18.2948C0.244186 17.9526 0.0509701 17.4891 0.0487652 17.0052V9.46153L0.0990543 2.20288C0.103476 1.6456 0.327965 1.11264 0.723602 0.720142C1.11924 0.327643 1.65397 0.10741 2.21127 0.107427ZM7.65107 1.23897H2.21127C1.95184 1.23893 1.70277 1.34083 1.51777 1.52271C1.33276 1.70458 1.22661 1.95186 1.22222 2.21126L1.17193 9.46153V17.0052C1.17413 17.1904 1.24928 17.3674 1.38108 17.4976C1.51288 17.6278 1.69071 17.7009 1.876 17.7009H22.1265C22.3117 17.7009 22.4896 17.6278 22.6214 17.4976C22.7532 17.3674 22.8283 17.1904 22.8305 17.0052V14.8259C22.83 14.1565 22.6501 13.4994 22.3096 12.923C21.9691 12.3467 21.4804 11.8721 20.8943 11.5486H20.844C19.6935 10.9586 18.4043 10.6921 17.1141 10.7775H16.7202C16.1585 10.7826 15.5975 10.7377 15.0438 10.6434C14.4008 10.5357 13.782 10.3143 13.2166 9.98958C11.096 8.77422 9.5705 6.10881 8.59821 2.03524C8.54722 1.82024 8.42511 1.62876 8.25168 1.49184C8.07824 1.35492 7.86365 1.28058 7.64268 1.28088L7.65107 1.23897Z" fill="white"/>
<path d="M1.17475 14.3828C1.02581 14.3828 0.882967 14.442 0.777649 14.5473C0.672333 14.6526 0.613165 14.7955 0.613165 14.9444C0.613165 15.0933 0.672333 15.2362 0.777649 15.3415C0.882967 15.4468 1.02581 15.506 1.17475 15.506H22.6909C22.8398 15.506 22.9826 15.4468 23.088 15.3415C23.1933 15.2362 23.2524 15.0933 23.2524 14.9444C23.2506 14.8003 23.1942 14.6623 23.0947 14.5581C22.9951 14.4539 22.8598 14.3913 22.716 14.3828H1.17475Z" fill="white"/>
<path d="M17.7342 9.78125C17.59 9.78086 17.4511 9.83513 17.3453 9.93311C17.2395 10.0311 17.1749 10.1655 17.1643 10.3093L17.1223 14.6678C17.1244 14.8169 17.184 14.9594 17.2887 15.0656C17.3933 15.1718 17.5349 15.2335 17.6839 15.2378C17.8272 15.2381 17.9652 15.1835 18.0696 15.0854C18.174 14.9872 18.2369 14.8528 18.2455 14.7098V10.3512C18.2482 10.2092 18.1969 10.0714 18.1021 9.96559C18.0072 9.85982 17.8757 9.79395 17.7342 9.78125Z" fill="white"/>
<path fill-rule="evenodd" clip-rule="evenodd" d="M0.835949 1.16211H9.16014V3.02413L9.51787 3.41641C9.69858 4.85528 10.6599 7.95875 13.0743 9.77966L17.6899 9.77966V14.6896H9.16014L4.16248 14.6896L0.835949 14.6896V1.16211ZM6.91962 6.17126C6.49094 5.88483 5.98696 5.73195 5.47139 5.73195C5.12876 5.73084 4.78929 5.79751 4.47252 5.92812C4.15576 6.05873 3.86796 6.2507 3.62568 6.49298C3.3834 6.73526 3.19143 7.02306 3.06082 7.33983C2.93021 7.65659 2.86354 7.99606 2.86465 8.33869C2.86465 8.85426 3.01753 9.35824 3.30396 9.78692C3.59039 10.2156 3.99751 10.5497 4.47383 10.747C4.95015 10.9443 5.47428 10.9959 5.97994 10.8953C6.4856 10.7948 6.95008 10.5465 7.31464 10.1819C7.6792 9.81738 7.92747 9.3529 8.02805 8.84724C8.12863 8.34158 8.07701 7.81745 7.87971 7.34113C7.68241 6.86481 7.3483 6.4577 6.91962 6.17126ZM4.66115 7.12824C4.89929 6.96218 5.18114 6.87009 5.47139 6.86349C5.66792 6.85902 5.86336 6.89388 6.04623 6.96601C6.22909 7.03815 6.3957 7.1461 6.53626 7.28353C6.67681 7.42097 6.78848 7.5851 6.86471 7.7663C6.94093 7.9475 6.98017 8.14211 6.98012 8.33869C6.98004 8.62901 6.8943 8.91286 6.73364 9.15468C6.57298 9.39649 6.34453 9.58553 6.07693 9.6981C5.80932 9.81067 5.51444 9.84178 5.22923 9.78752C4.94402 9.73326 4.68116 9.59606 4.47358 9.39309C4.266 9.19012 4.12292 8.93041 4.06227 8.64649C4.00162 8.36257 4.02609 8.06707 4.13262 7.797C4.23915 7.52693 4.42301 7.2943 4.66115 7.12824Z" fill="white"/>
</svg>
