<svg width="34" height="32" viewBox="0 0 34 32" fill="none" xmlns="http://www.w3.org/2000/svg">
<path fill-rule="evenodd" clip-rule="evenodd" d="M13.6707 0.768804L14.8127 0.628921C17.6497 0.281403 20.2327 2.2979 20.5803 5.13496L21.0825 9.2355C21.1161 9.50959 20.9211 9.759 20.647 9.79258L17.7467 10.1478C17.4726 10.1814 17.2776 10.4308 17.3112 10.7049L18.2925 18.7163C18.3261 18.9903 18.1311 19.2398 17.857 19.2733L6.68425 20.6419C6.41016 20.6755 6.16074 20.4805 6.12717 20.2064L5.14584 12.1951C5.11227 11.921 4.86285 11.726 4.58876 11.7596L1.68842 12.1149C1.41433 12.1484 1.16491 11.9535 1.13134 11.6794L0.629055 7.57883C0.281538 4.74177 2.29841 2.16182 5.13547 1.8143L6.2805 1.67405C6.54695 1.64141 6.78751 1.82714 6.87141 2.08213C7.31893 3.44219 8.67663 4.34404 10.1511 4.16342L10.5153 4.11881C11.9926 3.93785 13.0903 2.73524 13.1958 1.30745C13.2156 1.03974 13.4043 0.801442 13.6707 0.768804ZM9.52841 9.03065C8.68355 9.41879 8.49999 10.4952 8.86739 11.2965C9.46375 12.5851 10.9865 13.0833 11.3957 13.0331C11.7974 12.9839 13.1682 12.1159 13.4226 10.7385C13.5857 9.87226 13.1478 8.87195 12.2342 8.69921C11.7618 8.61091 11.1836 8.78943 10.9371 9.28891C10.5564 8.88165 9.97218 8.82243 9.52841 9.03065Z" fill="white"/>
<path fill-rule="evenodd" clip-rule="evenodd" d="M21.3584 12.1183L17.3304 27.1508C17.1875 27.6843 17.504 28.2326 18.0375 28.3756L22.5577 29.5868L25.4093 18.9446C25.4717 18.7118 25.7109 18.5736 25.9437 18.636C26.1765 18.6984 26.3146 18.9377 26.2523 19.1704L23.4007 29.8126L27.907 31.0201C28.4405 31.163 28.9888 30.8464 29.1317 30.313L33.1597 15.2804C33.3026 14.747 32.9861 14.1986 32.4526 14.0557L22.5831 11.4112C22.0496 11.2682 21.5013 11.5848 21.3584 12.1183Z" fill="white"/>
</svg>
