<svg width="26" height="30" viewBox="0 0 26 30" fill="none" xmlns="http://www.w3.org/2000/svg">
<path fill-rule="evenodd" clip-rule="evenodd" d="M4.84867 14.4091C5.26765 13.8781 5.79904 13.2046 6.33043 11.9684C6.62689 12.8551 6.33043 14.1853 5.44103 16.4021C11.2221 16.4021 13.0009 15.072 14.335 11.0817C14.7797 11.525 15.2244 13.2985 13.0009 16.4021C14.7797 16.4021 20.116 16.4021 21.0054 11.525C21.0054 11.525 21.8948 13.2985 21.0054 16.8455C23.3395 16.1473 25.2488 15.5763 25.4372 12.1086C25.2576 5.39072 19.7555 0 12.9943 0C6.13184 0 0.566471 5.55328 0.546875 12.4111L0.54936 12.4118C0.54936 12.4118 0.54936 16.8455 4.10694 17.2889C3.83937 15.6882 4.21577 15.2112 4.84867 14.4091Z" fill="white"/>
<path d="M0.550293 28.4863C3.0406 26.4204 3.3325 21.2297 3.18427 19.3359L4.99727 20.6661L6.33136 23.838C7.66545 24.6564 9.44424 24.7342 7.22075 27.3166C4.73045 30.2089 1.88439 29.0028 0.550293 28.4863Z" fill="white"/>
<path d="M25.1741 28.4863C22.6838 26.4204 22.3919 21.2297 22.5401 19.3359L20.9995 20.7334L19.393 23.838C18.0589 24.6564 16.2801 24.7342 18.5036 27.3166C20.9939 30.2089 23.84 29.0028 25.1741 28.4863Z" fill="white"/>
<mask id="path-4-outside-1_1096_94429" maskUnits="userSpaceOnUse" x="0.443115" y="14.0742" width="25" height="14" fill="black">
<rect fill="white" x="0.443115" y="14.0742" width="25" height="14"/>
</mask>
<path d="M21.8443 19.6621V18.9953C21.5454 18.9953 21.283 19.1942 21.2023 19.482L21.8443 19.6621ZM4.19219 19.772L4.83212 19.5845C4.74505 19.2873 4.46488 19.0892 4.1557 19.1061L4.19219 19.772ZM23.9006 17.0332C23.9006 18.138 22.961 18.9953 21.8443 18.9953V20.329C23.6115 20.329 25.2342 18.9578 25.2342 17.0332H23.9006ZM4.05392 19.1089C3.01084 19.1089 2.10994 18.2109 2.10994 17.0332H0.776289C0.776289 18.8848 2.21318 20.4426 4.05392 20.4426V19.1089ZM23.3055 15.5389C23.6697 15.9138 23.9006 16.4415 23.9006 17.0332H25.2342C25.2342 16.09 24.865 15.2302 24.2621 14.6096L23.3055 15.5389ZM21.2023 19.482C20.1498 23.2327 16.8602 25.935 13.0025 25.935V27.2687C17.5119 27.2687 21.2874 24.1149 22.4863 19.8423L21.2023 19.482ZM4.1557 19.1061C4.12205 19.108 4.08812 19.1089 4.05392 19.1089V20.4426C4.11249 20.4426 4.17076 20.441 4.22869 20.4378L4.1557 19.1061ZM13.0025 25.935C9.17998 25.935 5.91549 23.282 4.83212 19.5845L3.55227 19.9595C4.78661 24.1723 8.5344 27.2687 13.0025 27.2687V25.935ZM2.10994 17.0332C2.10994 16.4571 2.32882 15.9415 2.67666 15.5687L1.70145 14.6589C1.12643 15.2754 0.776289 16.1148 0.776289 17.0332H2.10994Z" fill="white" mask="url(#path-4-outside-1_1096_94429)"/>
</svg>
