<svg width="30" height="30" viewBox="0 0 30 30" fill="none" xmlns="http://www.w3.org/2000/svg">
<path fill-rule="evenodd" clip-rule="evenodd" d="M19.888 3H21.5434C25.2865 3 28.323 6.03246 28.323 9.77559V15.3405C28.323 15.6167 28.0992 15.8405 27.823 15.8405H23.6868C23.4107 15.8405 23.1868 16.0644 23.1868 16.3405V27.22C23.1868 27.4961 22.963 27.72 22.6868 27.72H7.6362C7.36006 27.72 7.1362 27.4961 7.1362 27.22V16.3405C7.1362 16.0644 6.91235 15.8405 6.6362 15.8405H2.5C2.22386 15.8405 2 15.6167 2 15.3405V9.77559C2 6.03246 5.03246 3 8.77559 3H10.4351C10.7035 3 10.9207 3.21312 10.9632 3.47818C11.2694 5.38952 12.9246 6.85215 14.9213 6.85215H15.4018C17.4022 6.85215 19.0543 5.38953 19.3599 3.47819C19.4023 3.21311 19.6195 3 19.888 3ZM13.341 13.0801C12.181 13.4501 11.771 14.8201 12.121 15.9201C12.691 17.6901 14.591 18.5801 15.131 18.5801C15.661 18.5801 17.581 17.6701 18.131 15.9201C18.481 14.8201 18.071 13.4501 16.911 13.0801C16.311 12.8901 15.531 13.0301 15.131 13.6401C14.701 13.0501 13.951 12.8801 13.341 13.0801Z" fill="white"/>
</svg>
