<svg width="17" height="17" viewBox="0 0 17 17" fill="none" xmlns="http://www.w3.org/2000/svg">
<path d="M6.23464 9.84583V12.8208C6.23464 15.3 7.02797 16.2917 9.0113 16.2917H11.3913C13.3746 16.2917 14.168 15.3 14.168 12.8208V9.84583C14.168 7.36667 13.3746 6.375 11.3913 6.375H9.0113M6.23464 9.84583C6.23464 7.36667 7.02797 6.375 9.0113 6.375M6.23464 9.84583V12.0417H5.6113C3.62797 12.0417 2.83464 11.05 2.83464 8.57083V5.59583C2.83464 3.11667 3.62797 2.125 5.6113 2.125H7.9913C9.97464 2.125 10.768 3.11667 10.768 5.59583V6.375H9.0113" stroke="white" stroke-width="1.0625" stroke-linecap="round" stroke-linejoin="round"/>
</svg>
