<svg width="17" height="17" viewBox="0 0 17 17" fill="none" xmlns="http://www.w3.org/2000/svg">
<path d="M6.23341 8.84583V11.8208C6.23341 14.3 7.02675 15.2917 9.01008 15.2917H11.3901C13.3734 15.2917 14.1667 14.3 14.1667 11.8208V8.84583C14.1667 6.36667 13.3734 5.375 11.3901 5.375H9.01008M6.23341 8.84583C6.23341 6.36667 7.02675 5.375 9.01008 5.375M6.23341 8.84583V11.0417H5.61008C3.62675 11.0417 2.83341 10.05 2.83341 7.57083V4.59583C2.83341 2.11667 3.62675 1.125 5.61008 1.125H7.99008C9.97341 1.125 10.7667 2.11667 10.7667 4.59583V5.375H9.01008" stroke="#CCCCCC" stroke-width="1.0625" stroke-linecap="round" stroke-linejoin="round"/>
</svg>
