<svg width="26" height="26" viewBox="0 0 26 26" fill="none" xmlns="http://www.w3.org/2000/svg">
<path fill-rule="evenodd" clip-rule="evenodd" d="M25.5 16.75C25.5 23 23 25.5 16.75 25.5H9.25C3 25.5 0.5 23 0.5 16.75V9.25C0.5 3 3 0.5 9.25 0.5H16.75C23 0.5 25.5 3 25.5 9.25V16.75ZM8.71221 10.5C9.40257 10.5 9.96221 9.94036 9.96221 9.25C9.96221 8.55964 9.40257 8 8.71221 8C8.02186 8 7.46221 8.55964 7.46221 9.25C7.46221 9.94036 8.02186 10.5 8.71221 10.5ZM18.3679 9.25C18.3679 9.94036 17.8083 10.5 17.1179 10.5C16.4276 10.5 15.8679 9.94036 15.8679 9.25C15.8679 8.55964 16.4276 8 17.1179 8C17.8083 8 18.3679 8.55964 18.3679 9.25ZM17.8 13H8.2C7.53333 13 7 13.5185 7 14.1667C7 17.3944 9.68 20 13 20C16.32 20 19 17.3944 19 14.1667C19 13.5185 18.4667 13 17.8 13Z" fill="#333333"/>
</svg>
