<svg width="30" height="30" viewBox="0 0 30 30" fill="none" xmlns="http://www.w3.org/2000/svg">
<circle cx="15" cy="15" r="14.5" fill="white" stroke="#E6E8F1"/>
<path d="M22.5931 15.157C22.5931 14.5047 22.5402 14.0288 22.4256 13.5352H14.9775V16.4791H19.3494C19.2613 17.2107 18.7853 18.3125 17.7276 19.0529L17.7128 19.1514L20.0677 20.9758L20.2309 20.9921C21.7293 19.6082 22.5931 17.5721 22.5931 15.157Z" fill="#4285F4"/>
<path d="M14.9773 22.9108C17.1192 22.9108 18.9173 22.2056 20.2307 20.9893L17.7274 19.0501C17.0575 19.5173 16.1584 19.8434 14.9773 19.8434C12.8796 19.8434 11.0991 18.4596 10.4644 16.5469L10.3714 16.5548L7.92265 18.4499L7.89062 18.5389C9.19513 21.1303 11.8747 22.9108 14.9773 22.9108Z" fill="#34A853"/>
<path d="M10.4644 16.5475C10.2969 16.0539 10.2 15.525 10.2 14.9785C10.2 14.432 10.2969 13.9031 10.4555 13.4096L10.4511 13.3044L7.97171 11.3789L7.89059 11.4175C7.35294 12.4929 7.04443 13.7004 7.04443 14.9785C7.04443 16.2566 7.35294 17.4641 7.89059 18.5395L10.4644 16.5475Z" fill="#FBBC05"/>
<path d="M14.9773 10.1142C16.4669 10.1142 17.4718 10.7577 18.0447 11.2954L20.2835 9.10942C18.9085 7.83135 17.1192 7.04688 14.9773 7.04688C11.8747 7.04688 9.19513 8.82735 7.89062 11.4187L10.4556 13.4108C11.0991 11.4981 12.8796 10.1142 14.9773 10.1142Z" fill="#EB4335"/>
</svg>
