<svg width="12" height="12" viewBox="0 0 12 12" fill="none" xmlns="http://www.w3.org/2000/svg">
<circle cx="6" cy="6" r="6" fill="white"/>
<g clip-path="url(#clip0_1554_217916)">
<path d="M9.03719 6.06181C9.03719 5.80091 9.01602 5.61052 8.9702 5.41309H5.99097V6.59066H7.73971C7.70447 6.88331 7.51408 7.32403 7.09098 7.62017L7.08505 7.65959L8.02703 8.38933L8.09229 8.39585C8.69166 7.8423 9.03719 7.02786 9.03719 6.06181Z" fill="#4285F4"/>
<path d="M5.99106 9.16471C6.8478 9.16471 7.56704 8.88264 8.09239 8.39611L7.09108 7.62043C6.82313 7.80729 6.4635 7.93774 5.99106 7.93774C5.15194 7.93774 4.43975 7.38422 4.18588 6.61914L4.14867 6.6223L3.16918 7.38033L3.15637 7.41594C3.67817 8.4525 4.75 9.16471 5.99106 9.16471Z" fill="#34A853"/>
<path d="M4.18584 6.61918C4.11885 6.42174 4.08008 6.21018 4.08008 5.9916C4.08008 5.77299 4.11885 5.56145 4.18231 5.36402L4.18054 5.32197L3.18878 4.55176L3.15633 4.56719C2.94127 4.99734 2.81787 5.48037 2.81787 5.9916C2.81787 6.50283 2.94127 6.98583 3.15633 7.41598L4.18584 6.61918Z" fill="#FBBC05"/>
<path d="M5.99106 4.0453C6.5869 4.0453 6.98882 4.30268 7.21801 4.51776L8.11354 3.64338C7.56354 3.13215 6.8478 2.81836 5.99106 2.81836C4.75 2.81836 3.67817 3.53055 3.15637 4.5671L4.18235 5.36393C4.43975 4.59885 5.15194 4.0453 5.99106 4.0453Z" fill="#EB4335"/>
</g>
<defs>
<clipPath id="clip0_1554_217916">
<rect width="6.42857" height="6.42857" fill="white" transform="translate(2.78577 2.78613)"/>
</clipPath>
</defs>
</svg>
