<svg width="47" height="46" viewBox="0 0 47 46" fill="none" xmlns="http://www.w3.org/2000/svg">
<circle cx="23.5" cy="23" r="23" fill="black"/>
<circle cx="23.5" cy="23" r="22.5" stroke="#667085" stroke-opacity="0.25"/>
<g clip-path="url(#clip0_598_70515)">
<g clip-path="url(#clip1_598_70515)">
<path d="M29.0296 23.4877C29.0592 26.6685 31.82 27.727 31.8506 27.7405C31.8272 27.8151 31.4094 29.2489 30.396 30.7299C29.52 32.0103 28.6108 33.286 27.1785 33.3124C25.7711 33.3384 25.3186 32.4779 23.7096 32.4779C22.1011 32.4779 21.5983 33.286 20.266 33.3384C18.8835 33.3907 17.8308 31.9538 16.9474 30.6781C15.1425 28.0686 13.7631 23.3043 15.6152 20.0883C16.5354 18.4912 18.1796 17.4798 19.9644 17.4539C21.322 17.428 22.6034 18.3672 23.4333 18.3672C24.2627 18.3672 25.8199 17.2377 27.4569 17.4036C28.1422 17.4321 30.0658 17.6804 31.3011 19.4885C31.2016 19.5502 29.0058 20.8285 29.0296 23.4877V23.4877ZM26.3847 15.6772C27.1186 14.7887 27.6127 13.5519 27.4779 12.3213C26.4199 12.3638 25.1406 13.0263 24.3817 13.9143C23.7016 14.7006 23.106 15.9592 23.2667 17.1655C24.4459 17.2567 25.6506 16.5662 26.3847 15.6772" fill="white"/>
</g>
</g>
<defs>
<clipPath id="clip0_598_70515">
<rect width="17.7976" height="21.3571" fill="white" transform="translate(14.4648 12.3213)"/>
</clipPath>
<clipPath id="clip1_598_70515">
<rect width="17.1142" height="21.0586" fill="white" transform="translate(14.7363 12.3213)"/>
</clipPath>
</defs>
</svg>
