<svg width="8" height="8" viewBox="0 0 8 8" fill="none" xmlns="http://www.w3.org/2000/svg">
<path fill-rule="evenodd" clip-rule="evenodd" d="M0.813278 4.58633L2.82906 1.09433C3.17696 0.491649 3.66917 0.120015 4.55539 0.63176C5.44161 1.1435 5.36593 1.75566 5.01802 2.35834L3.15595 5.58408L1.62828 4.70208C1.50871 4.63304 1.35581 4.67401 1.28678 4.79358C1.21774 4.91315 1.25871 5.06605 1.37828 5.13509L2.88066 6.00249C2.79597 6.08852 2.69199 6.16651 2.60277 6.20462L1.59116 6.63676C1.2243 6.79125 0.884041 6.59772 0.837875 6.20178L0.706254 5.10949C0.686951 4.95358 0.736535 4.71928 0.813278 4.58633Z" fill="white"/>
<line x1="2.5" y1="7.15692" x2="7.5" y2="7.15692" stroke="white" stroke-linecap="round"/>
</svg>
