<svg width="60" height="60" viewBox="0 0 60 60" fill="none" xmlns="http://www.w3.org/2000/svg">
<rect width="60" height="60" rx="20" fill="#F8F8F8"/>
<path d="M30.3918 9.30007C18.7615 9.28473 9.31613 18.7071 9.3008 30.3451C9.28547 41.9831 18.7078 51.4207 30.3458 51.4361C41.9838 51.4514 51.4215 42.0291 51.4368 30.3987C51.4445 18.7607 42.0298 9.3154 30.3918 9.30007ZM30.3458 44.8197C22.3648 44.8121 15.8941 38.3337 15.9095 30.3451C15.9171 22.3641 22.3955 15.9011 30.3841 15.9087C38.3651 15.9164 44.8281 22.4024 44.8205 30.3834C44.8128 38.3644 38.3268 44.8274 30.3535 44.8197H30.3458Z" fill="#0054A6"/>
<path d="M35.4207 23.7518C36.724 23.5372 37.713 22.4178 37.713 21.0608C37.713 19.5505 36.4864 18.3162 34.976 18.3162C33.4657 18.3162 32.2314 19.5428 32.2314 21.0608C32.2314 21.1222 32.2314 21.1758 32.239 21.2295H32.2314L32.2467 27.9915H32.2544V28.0145C33.826 28.7275 34.884 30.3222 34.884 32.1698C34.884 34.6845 32.86 36.7238 30.353 36.7238C27.846 36.7238 25.822 34.6845 25.822 32.1698C25.822 30.4832 26.7344 29.0188 28.0837 28.2292L28.4134 28.0605C28.4517 28.0375 28.49 28.0145 28.536 27.9992V24.2655V21.2372C28.536 21.1835 28.5437 21.1298 28.5437 21.0685C28.5437 19.5582 27.317 18.3238 25.799 18.3238C24.281 18.3238 23.0544 19.5505 23.0544 21.0685C23.0544 22.3795 23.9744 23.4758 25.201 23.7442L18.9297 28.3902L23.8134 41.9448H36.9004L41.8147 28.4515L35.4207 23.7595V23.7518Z" fill="#0054A6"/>
<path d="M14.4696 29.7703L11.8323 29.571L12.2233 30.3453L11.5946 30.2993C11.3953 29.8087 11.1423 29.41 10.8203 29.111L10.8433 28.8503L14.5156 29.1263L14.4696 29.778V29.7703Z" fill="white"/>
<path d="M14.6449 28.229L14.1849 28.4436C14.0776 27.8763 13.8476 27.424 13.4796 27.0866C13.4949 27.2093 13.4719 27.3473 13.4183 27.516C13.3109 27.838 13.1193 28.068 12.8433 28.1983C12.5749 28.3286 12.2606 28.3363 11.9156 28.2213C11.5706 28.1063 11.3253 27.9146 11.1796 27.6386C11.0339 27.3626 11.0186 27.0713 11.1183 26.7646C11.3943 25.9596 12.0383 25.7296 13.0579 26.067C13.4873 26.2126 13.8629 26.5116 14.1926 26.964C14.5223 27.4163 14.6679 27.8456 14.6373 28.2443L14.6449 28.229ZM12.1073 27.5773C12.2989 27.6386 12.4676 27.6463 12.6133 27.5926C12.7589 27.539 12.8509 27.4393 12.8969 27.3013C13.0196 26.9486 12.8816 26.7033 12.4829 26.573C12.0536 26.4273 11.7776 26.5346 11.6549 26.895C11.6089 27.0406 11.6243 27.171 11.7009 27.2936C11.7776 27.4163 11.9156 27.5083 12.0996 27.5773H12.1073Z" fill="white"/>
<path d="M14.9901 26.2745L14.8137 26.2131L13.5717 24.5648C13.3187 24.2351 13.0887 24.0358 12.8664 23.9515C12.6057 23.8671 12.4217 23.9745 12.3144 24.2888C12.2301 24.5265 12.2914 24.7641 12.4907 25.0018L12.0231 25.3008C11.8851 25.1628 11.7931 24.9865 11.7394 24.7718C11.6934 24.5571 11.7011 24.3425 11.7777 24.1355C11.9004 23.7828 12.0767 23.5298 12.3067 23.3841C12.5367 23.2385 12.7974 23.2155 13.0811 23.3151C13.3417 23.4071 13.6254 23.6448 13.9321 24.0358L14.7677 25.1168L15.2201 23.8135L15.7644 24.0051L14.9747 26.2668L14.9901 26.2745Z" fill="white"/>
<path d="M15.972 21.5587L16.8 22.0494L16.478 22.586L15.65 22.103L14.799 23.529L14.477 23.3374L13.4727 20.424L13.6183 20.1787L15.5197 21.298L15.7113 20.9837L16.156 21.2444L15.9643 21.5664L15.972 21.5587ZM14.2623 21.275L14.73 22.632L15.2053 21.8347L14.2623 21.275Z" fill="white"/>
<path d="M46.2012 29.3563L46.1016 28.651C46.9679 28.8043 48.0566 29.1263 49.3522 29.6093L49.1222 27.9457L49.7202 27.8613L50.0729 30.3607L49.7969 30.399L49.1299 30.1537C48.9076 30.0693 48.6622 29.9927 48.3939 29.9083C48.1332 29.824 47.8649 29.7473 47.5889 29.663C47.3206 29.5863 47.0599 29.5173 46.8299 29.4637C46.5922 29.41 46.3776 29.364 46.1936 29.3333L46.2012 29.3563Z" fill="white"/>
<path d="M44.7969 19.1136C44.7969 19.5046 44.4749 19.8266 44.0763 19.8266C43.6776 19.8266 43.3633 19.5046 43.3633 19.1136C43.3633 18.7226 43.6853 18.4006 44.0763 18.4006C44.4673 18.4006 44.7969 18.7226 44.7969 19.1136Z" fill="white"/>
<path d="M17.5509 18.8912C17.5509 19.2899 17.2289 19.6042 16.8302 19.6042C16.4315 19.6042 16.1172 19.2899 16.1172 18.8912C16.1172 18.4926 16.4392 18.1782 16.8302 18.1782C17.2212 18.1782 17.5509 18.5002 17.5509 18.8912Z" fill="white"/>
<path d="M44.1211 22.4411L46.4288 21.1454L45.6698 20.7161L46.2141 20.4094C46.6511 20.7084 47.0881 20.9001 47.5251 20.9768L47.6554 21.2068L44.4431 23.0084L44.1211 22.4411Z" fill="white"/>
<path d="M44.957 24.2271L45.1334 23.7594C45.6087 24.0891 46.0994 24.2501 46.5977 24.2347C46.5057 24.1581 46.4214 24.0431 46.3447 23.8821C46.1914 23.5754 46.1684 23.2841 46.268 23.0004C46.3677 22.7167 46.5824 22.4944 46.912 22.3334C47.2417 22.1724 47.556 22.1417 47.8474 22.2337C48.1464 22.3257 48.3687 22.5174 48.5067 22.8087C48.8824 23.5754 48.5834 24.1887 47.6174 24.6641C47.2187 24.8634 46.7357 24.9171 46.1837 24.8174C45.624 24.7254 45.2177 24.5261 44.9647 24.2271H44.957ZM47.2187 22.9161C47.0347 23.0081 46.9044 23.1231 46.8507 23.2611C46.7894 23.3991 46.7894 23.5294 46.8507 23.6674C47.0117 24.0047 47.2877 24.0737 47.6634 23.8897C48.0697 23.6904 48.1847 23.4221 48.0237 23.0847C47.9547 22.9467 47.855 22.8624 47.7094 22.8317C47.5637 22.8011 47.4027 22.8317 47.2264 22.9161H47.2187Z" fill="white"/>
<path d="M46.9836 27.5926L46.0406 27.7766L45.918 27.1632L46.861 26.9792L46.539 25.3539L46.907 25.2849L49.6056 26.7952L49.6593 27.0712L47.4896 27.4929L47.5663 27.8532L47.0603 27.9529L46.9913 27.5926H46.9836ZM48.448 26.6649L47.1906 25.9596L47.3746 26.8719L48.4556 26.6649H48.448Z" fill="white"/>
<path d="M33.7891 12.375C33.8274 13.0113 34.3717 13.4943 35.0004 13.456C35.6291 13.4177 36.1121 12.8733 36.0737 12.237C36.0737 12.214 36.0737 12.191 36.0584 12.168L36.3497 12.2677L36.5414 11.708L35.6597 11.4013L35.7977 11.0103L35.0771 10.7573L34.9467 11.1483L34.0037 10.8187L33.8121 11.3783L34.1341 11.4933C33.9041 11.7157 33.7814 12.0377 33.7967 12.375H33.7891ZM34.9084 11.8153C35.1767 11.8 35.3991 11.9993 35.4144 12.2677C35.4297 12.536 35.2304 12.766 34.9621 12.7737C34.6937 12.789 34.4714 12.5897 34.4561 12.3213C34.4407 12.053 34.6401 11.8307 34.9084 11.8077V11.8153Z" fill="white"/>
<path d="M37.8058 13.287L38.2658 13.448L38.4728 12.85L38.0128 12.689L38.1968 12.1676L37.5452 11.9453L36.8398 13.9846L37.4838 14.207L37.8058 13.287Z" fill="white"/>
<path d="M36.1415 16.0926L36.7778 16.315L37.3681 14.6206L33.3125 13.21L33.1055 13.8003L36.5171 14.9886L36.1415 16.0926Z" fill="white"/>
<path d="M31.3717 11.9379L31.7244 11.9532L31.6324 14.8359L32.33 14.8589L32.468 10.5502L31.7704 10.5349L31.7397 11.3552L31.387 11.3399L31.41 10.5196L30.7124 10.4966L30.582 14.8052L31.2797 14.8282L31.3717 11.9379Z" fill="white"/>
<path d="M30.0403 12.3442L28.6143 12.4056L28.5607 11.2096L29.9867 11.1482L29.9637 10.4966L27.8477 10.5886L27.955 13.0802L30.0633 12.9882L30.0403 12.3442Z" fill="white"/>
<path d="M23.5235 12.3826L22.5958 13.6859L23.2705 13.7933L24.3898 12.1143L26.2682 12.7583L26.7895 12.2523L25.2025 11.8306L26.4292 11.4166L26.2375 10.8186L22.0898 12.1909L22.2892 12.7966L23.5235 12.3826Z" fill="white"/>
<path d="M23.0314 15.2953L24.8714 14.659L25.2394 15.7553L25.9217 15.5176L25.5537 14.429L27.3477 13.808L27.1407 13.21L22.832 14.6896L23.0314 15.2953Z" fill="white"/>
<path d="M17.513 16.0167L18.0726 15.6257L18.111 16.722L18.7396 16.6147L18.6783 15.204L20.0353 15.7484L20.319 15.1504L19.3376 14.744L19.859 14.3837L19.5063 13.8777L18.6323 14.4834L18.4176 14.146L17.8196 14.5447L18.0496 14.8897L17.168 15.503L17.513 16.0167Z" fill="white"/>
<path d="M22.618 16.783C22.7636 16.162 22.388 15.5487 21.7746 15.403C21.1613 15.2573 20.5403 15.6406 20.3946 16.254C20.249 16.875 20.6246 17.4883 21.238 17.634C21.8513 17.7796 22.4723 17.3963 22.618 16.783ZM21.0463 16.4073C21.1076 16.1543 21.3606 15.9933 21.6213 16.0547C21.8743 16.116 22.0276 16.3767 21.974 16.6297C21.9126 16.8903 21.6596 17.0437 21.4066 16.9823C21.1536 16.921 20.9926 16.668 21.054 16.4073H21.0463Z" fill="white"/>
<path d="M20.0117 14.1305L20.3721 14.6441L20.9087 14.2685L21.3994 14.9661L21.9667 14.5675L20.7861 12.8655L20.2187 13.2641L20.5561 13.7471L20.0117 14.1305Z" fill="white"/>
<path d="M37.7822 15.6178L37.4219 16.1314L41.1402 18.7611L41.4929 18.2474L40.4809 17.5268L41.1172 16.6068L40.5192 16.1851L39.8905 17.1051L39.0472 16.5148L39.6912 15.5948L39.0932 15.1731L38.4569 16.0931L37.7822 15.6178Z" fill="white"/>
<path d="M39.4453 13.4408L42.3816 15.5261L41.4233 16.8984L41.9753 17.2894L43.3016 15.3881L39.8133 12.9194L39.4453 13.4408Z" fill="white"/>
<path d="M11.448 34.332C11.448 34.332 11.402 33.3277 12.7513 33.067C12.7513 33.067 14.07 32.8293 14.3 33.7263C14.3 33.7263 14.3537 34.0867 14.162 34.2553L14.9593 34.102C14.9593 34.102 15.0973 33.4963 14.6143 32.9443C14.6143 32.9443 13.932 32.2083 12.6977 32.4C12.6977 32.4 11.4863 32.5763 11.034 33.458C11.034 33.458 10.528 34.148 11.0877 35.0987L11.8697 34.8917C11.8697 34.8917 11.5323 34.723 11.448 34.332Z" fill="white"/>
<path d="M15.6891 36.1876C15.6891 36.1876 14.3321 36.732 14.2401 36.7626C14.2018 36.6783 13.8721 35.835 13.8338 35.7506C13.9258 35.7123 15.2828 35.1756 15.2828 35.1756L15.0451 34.5776L11.2578 36.088L11.4955 36.686C11.4955 36.686 13.0595 36.0573 13.1515 36.0266C13.1821 36.111 13.5195 36.9543 13.5501 37.0386C13.4581 37.077 11.8941 37.698 11.8941 37.698L12.1318 38.2883L15.9115 36.778L15.6738 36.1876H15.6891Z" fill="white"/>
<path d="M16.1081 37.261L16.0621 37.284L12.5508 39.239L13.5244 40.9947L14.1684 40.6343C14.1684 40.6343 13.5551 39.5303 13.5014 39.446C13.5858 39.4 14.3601 38.963 14.4444 38.917C14.4904 39.0013 14.9198 39.768 14.9198 39.768L15.5331 39.4307C15.5331 39.4307 15.1038 38.664 15.0578 38.5797C15.1344 38.5337 15.7018 38.227 15.7784 38.181C15.8244 38.2653 16.4378 39.3693 16.4378 39.3693L17.0741 39.0167L16.1004 37.261H16.1081Z" fill="white"/>
<path d="M18.0335 40.1595C17.7805 39.8375 17.4125 39.6995 16.9448 39.7608C16.4848 39.8145 16.0248 40.0215 15.5725 40.3818C15.0588 40.7805 14.7138 41.1945 14.5528 41.6008C14.4915 41.7618 14.4531 41.9228 14.4531 42.0685C14.4531 42.3061 14.5298 42.5285 14.6908 42.7278C14.9745 43.0881 15.3501 43.2491 15.8101 43.2031C16.2625 43.1571 16.7531 42.9348 17.2591 42.5361C17.7651 42.1375 18.0948 41.7311 18.2328 41.3248C18.3785 40.9108 18.3095 40.5198 18.0258 40.1671L18.0335 40.1595ZM16.8528 42.0148C16.4925 42.2985 16.1705 42.4671 15.8945 42.5055C15.6261 42.5438 15.4268 42.4671 15.2735 42.2755C15.1431 42.1145 15.1431 41.9228 15.2581 41.6851C15.3808 41.4398 15.6185 41.1791 15.9788 40.8955C16.3085 40.6425 16.6075 40.4815 16.8758 40.4278C17.1365 40.3741 17.3281 40.4355 17.4585 40.6118C17.7575 40.9951 17.5658 41.4551 16.8528 42.0148Z" fill="white"/>
<path d="M20.2958 42.5666C20.2958 42.5666 19.0232 44.008 18.8085 44.2533C18.8698 43.9236 19.2915 41.685 19.2915 41.685L19.0385 41.4626L19.0002 41.501L16.3398 44.514L16.8075 44.928C16.8075 44.928 18.1185 43.4406 18.3332 43.1953C18.2642 43.5326 17.8042 45.8786 17.8042 45.8786L18.0265 46.078L20.7558 42.9806L20.2882 42.5743L20.2958 42.5666Z" fill="white"/>
<path d="M21.3322 45.5026L20.9565 46.1083C20.9565 46.1083 21.2479 46.2846 21.3169 46.3306C21.2709 46.4073 20.9719 46.8979 20.9489 46.9286C20.7955 46.9746 20.6499 46.9516 20.5042 46.8596C20.2742 46.7139 20.1515 46.5069 20.1439 46.2233C20.1362 45.9319 20.2359 45.6023 20.4505 45.2573C20.6729 44.8893 20.9259 44.6363 21.2019 44.5059C21.4702 44.3756 21.7155 44.3909 21.9609 44.5366C22.0299 44.5826 22.1065 44.6669 22.1755 44.7896C22.2445 44.9123 22.2905 45.0196 22.2982 45.1116L22.3135 45.1959L22.8962 44.7589V44.7283C22.8272 44.3679 22.6509 44.0996 22.3519 43.9156C21.9455 43.6626 21.5085 43.6319 21.0562 43.8159C20.6115 43.9999 20.2205 44.3603 19.8985 44.8893C19.5765 45.4183 19.4232 45.9166 19.4385 46.3766C19.4615 46.8443 19.6609 47.1969 20.0442 47.4346C20.2205 47.5419 20.4199 47.6186 20.6345 47.6569C20.8492 47.6953 21.0562 47.6953 21.2479 47.6416H21.2709L22.2445 46.0546L21.3399 45.4949L21.3322 45.5026Z" fill="white"/>
<path d="M24.4956 45.0503L24.4726 45.104L23.5066 47.3963C23.3916 47.6723 23.2766 47.864 23.1616 47.9636C23.0543 48.0633 22.9316 48.0786 22.7859 48.0173C22.5789 47.933 22.5023 47.795 22.5483 47.588V47.542L22.0193 47.3196L21.9963 47.3733C21.8889 47.6723 21.8736 47.9406 21.9503 48.163C22.0346 48.393 22.1956 48.5616 22.4333 48.669C22.8013 48.8223 23.1156 48.807 23.3839 48.6306C23.6446 48.4543 23.8823 48.117 24.0893 47.6263L25.0629 45.3033L24.4726 45.0503H24.4956Z" fill="white"/>
<path d="M26.4893 48.5001C26.4356 48.7071 26.3436 48.8604 26.2209 48.9524C26.0983 49.0444 25.9526 49.0674 25.7763 49.0291C25.6229 48.9907 25.5233 48.9064 25.4696 48.7684C25.4083 48.6227 25.4083 48.4541 25.4466 48.2624L26.0983 45.6021L25.4773 45.4487L25.4619 45.5024L24.8103 48.1474C24.7106 48.5691 24.7259 48.9217 24.8639 49.1901C25.0019 49.4661 25.2549 49.6501 25.6076 49.7421C25.9603 49.8264 26.2746 49.7804 26.5353 49.5964C26.8036 49.4124 26.9876 49.1134 27.0873 48.7071L27.7543 46.0007L27.1333 45.8474L26.4816 48.4924L26.4893 48.5001Z" fill="white"/>
<path d="M31.7337 46.1538H31.1511L31.1971 48.8908C31.1971 49.1055 31.1511 49.2741 31.0591 49.3968C30.9594 49.5195 30.8291 49.5808 30.6451 49.5808C30.4917 49.5808 30.3691 49.5271 30.2771 49.4121C30.1851 49.2895 30.1314 49.1285 30.1314 48.9215L30.0854 46.1845H29.4414L29.4874 48.9751C29.4874 49.4121 29.6024 49.7418 29.8017 49.9718C30.0087 50.2018 30.2924 50.3168 30.6604 50.3168C31.0207 50.3091 31.3121 50.1788 31.5267 49.9411C31.7414 49.6958 31.8411 49.3585 31.8334 48.9445L31.7874 46.1615H31.7337V46.1538Z" fill="white"/>
<path d="M34.4035 45.687L33.8438 45.7943C33.8438 45.7943 34.2041 47.6803 34.2655 48.0023C34.0431 47.7493 32.5328 46.0396 32.5328 46.0396L32.2031 46.101L32.9621 50.103L33.5755 49.988C33.5755 49.988 33.2075 48.0406 33.1461 47.7186C33.3685 47.9793 34.9401 49.781 34.9401 49.781L35.2315 49.7273L34.4648 45.6716H34.4111L34.4035 45.687Z" fill="white"/>
<path d="M35.6533 45.3188L35.0859 45.5028L36.3433 49.3821L36.9566 49.1828L35.6993 45.3035L35.6533 45.3188Z" fill="white"/>
<path d="M38.5561 43.9539L38.0041 44.2299C38.0041 44.2299 38.4334 46.4686 38.5024 46.8059C38.2801 46.5452 36.7927 44.8356 36.7927 44.8356L36.1641 45.1499L39.0314 48.3316L39.3687 48.1629L38.6174 43.9309L38.5561 43.9616V43.9539Z" fill="white"/>
<path d="M41.3551 46.0623C41.3014 45.9856 40.7724 45.2649 40.7188 45.1883C40.7954 45.1346 41.5084 44.6133 41.5084 44.6133L41.0944 44.0459C41.0944 44.0459 40.3814 44.5596 40.3048 44.6133C40.2511 44.5443 39.8754 44.0229 39.8218 43.9463C39.8984 43.8849 40.9258 43.1489 40.9258 43.1489L40.4964 42.5586L40.4581 42.5893L38.8711 43.7393L41.2631 47.0359L42.8884 45.8553L42.4591 45.2649C42.4591 45.2649 41.4318 46.0086 41.3551 46.0623Z" fill="white"/>
<path d="M43.6085 42.4743C43.6085 42.367 43.5932 42.2597 43.5625 42.1447C43.4935 41.9223 43.3785 41.7307 43.2022 41.5543C42.9109 41.2707 42.6195 41.125 42.3282 41.125C42.0445 41.125 41.7609 41.2707 41.4849 41.5467L41.1552 41.9147L40.8945 42.2137L40.9252 42.252L43.7849 45.0733L44.2525 44.598C44.2525 44.598 43.1485 43.5093 43.0795 43.4403C43.1332 43.3943 43.2329 43.3023 43.2635 43.2717C43.3172 43.287 44.9962 43.8543 44.9962 43.8543L45.5175 43.3253C45.5175 43.3253 43.6622 42.7197 43.5855 42.689C43.6009 42.62 43.6162 42.5433 43.6162 42.4667L43.6085 42.4743ZM41.8605 42.2443L41.9449 42.1447C42.1059 41.9837 42.2515 41.8917 42.3665 41.8687C42.4815 41.8457 42.6042 41.8993 42.7269 42.022C42.8725 42.1677 42.9492 42.298 42.9492 42.4053C42.9492 42.413 42.9492 42.4207 42.9492 42.4283C42.9339 42.551 42.8572 42.6813 42.7039 42.8347C42.7039 42.8347 42.6195 42.9037 42.5735 42.9497C42.5122 42.8883 41.9142 42.3057 41.8529 42.2443H41.8605Z" fill="white"/>
<path d="M46.1697 40.5804C46.024 40.4731 45.8707 40.3965 45.725 40.3428C45.5717 40.2968 45.4184 40.2738 45.2727 40.2815C45.127 40.2891 44.9354 40.3428 44.713 40.4271C44.3067 40.5881 44.0154 40.6035 43.8544 40.4885C43.747 40.4118 43.6857 40.3351 43.6627 40.2431C43.6397 40.1511 43.6627 40.0668 43.7164 39.9825C43.8314 39.8291 44.0077 39.7218 44.2454 39.6758L44.3374 39.6604L43.862 39.0854H43.8314C43.586 39.1238 43.356 39.2848 43.1414 39.5838C42.9727 39.8138 42.9267 40.0668 42.9957 40.3351C43.0647 40.6035 43.2257 40.8334 43.4864 41.0174C43.6244 41.1171 43.7624 41.1861 43.9004 41.2321C44.0384 41.2781 44.1764 41.3011 44.3144 41.2935C44.4447 41.2858 44.644 41.2321 44.9124 41.1325C45.1654 41.0405 45.357 40.9945 45.4874 41.0098C45.6254 41.0175 45.7404 41.0635 45.84 41.1325C46.0547 41.2858 46.07 41.4621 45.909 41.6921C45.794 41.8455 45.61 41.9528 45.3417 42.0141L45.2574 42.0294L45.725 42.6505H45.7557C46.0547 42.5661 46.2924 42.4051 46.461 42.1751C46.6604 41.8991 46.7294 41.6155 46.668 41.3241C46.6067 41.0328 46.4457 40.7875 46.1697 40.5958V40.5804Z" fill="white"/>
<path d="M44.3226 37.8893L44.0312 38.4106L47.5886 40.4039L47.9029 39.8366L44.3533 37.8433L44.3226 37.8893Z" fill="white"/>
<path d="M46.2107 35.3134L45.5284 35.0374L45.5054 35.0834L44.5547 37.4447L45.237 37.7207C45.237 37.7207 45.559 36.9157 45.5974 36.8314C45.6894 36.8697 48.6947 38.0734 48.6947 38.0734L48.9324 37.483C48.9324 37.483 45.927 36.2794 45.835 36.2334C45.8734 36.149 46.2107 35.3057 46.2107 35.3057V35.3134Z" fill="white"/>
<path d="M48.3005 33.5733L46.1385 32.0859L46.1232 32.1626L46.0082 32.7529C46.0082 32.7529 47.2732 33.6039 47.4572 33.7266C47.2425 33.7726 45.7475 34.0793 45.7475 34.0793L45.6172 34.7463L48.1855 34.1866L49.7649 34.5009H49.8109L49.9335 33.8876C49.9335 33.8876 48.3159 33.5733 48.3005 33.5656V33.5733Z" fill="white"/>
</svg>
