<svg width="26" height="26" viewBox="0 0 26 26" fill="none" xmlns="http://www.w3.org/2000/svg">
<path d="M14.9737 13C14.9737 14.0921 14.0921 14.9737 13 14.9737C11.9079 14.9737 11.0263 14.0921 11.0263 13C11.0263 11.9079 11.9079 11.0263 13 11.0263C14.0921 11.0263 14.9737 11.9079 14.9737 13ZM25.5 13C25.5 19.8947 19.8947 25.5 13 25.5C6.10526 25.5 0.5 19.8947 0.5 13C0.5 6.10526 6.10526 0.5 13 0.5C19.8947 0.5 25.5 6.10526 25.5 13ZM19.1711 6.82902C18.6711 6.34218 17.9737 6.14463 17.2895 6.31569L11.9605 7.64465C9.82894 8.18412 8.1842 9.8289 7.64473 11.9605L6.31581 17.2895C6.14475 17.9737 6.3421 18.671 6.82894 19.171C7.21052 19.5394 7.71052 19.7498 8.22368 19.7498C8.38157 19.7498 8.55262 19.7238 8.71051 19.6843L14.0395 18.3554C16.1711 17.8159 17.8158 16.1711 18.3553 14.0395L19.6842 8.71051C19.8552 8.0263 19.6579 7.32902 19.1711 6.82902Z" fill="#333333"/>
</svg>
