<svg width="16" height="20" viewBox="0 0 16 20" fill="none" xmlns="http://www.w3.org/2000/svg">
<path fill-rule="evenodd" clip-rule="evenodd" d="M12.6673 10.1858C12.6673 12.4777 10.579 14.334 8.00065 14.334C5.42232 14.334 3.33398 12.4777 3.33398 10.1858V4.48213C3.33398 2.19028 5.42232 0.333984 8.00065 0.333984C10.579 0.333984 12.6673 2.19028 12.6673 4.48213V10.1858ZM5.94829 5.82044C7.29317 5.32933 8.75797 5.32933 10.1029 5.82044C10.4271 5.93884 10.7859 5.77198 10.9043 5.44774C11.0227 5.12351 10.8559 4.76468 10.5316 4.64628C8.90984 4.05405 7.14131 4.05405 5.51952 4.64628C5.19529 4.76468 5.02842 5.12351 5.14682 5.44774C5.26523 5.77198 5.62405 5.93884 5.94829 5.82044ZM9.29277 8.33755C8.40124 8.09238 7.45741 8.09238 6.56588 8.33755C6.23306 8.42908 5.88905 8.23347 5.79753 7.90064C5.706 7.56782 5.90161 7.22382 6.23443 7.13229C7.3429 6.82746 8.51574 6.82746 9.62421 7.13229C9.95704 7.22382 10.1526 7.56782 10.0611 7.90064C9.96959 8.23347 9.62559 8.42908 9.29277 8.33755ZM1.33464 7.66766C1.70283 7.66766 2.0013 7.96613 2.0013 8.33432V9.78887C2.0013 13.0199 4.68035 15.6677 8.0013 15.6677C11.3223 15.6677 14.0013 13.0199 14.0013 9.78887V8.33432C14.0013 7.96613 14.2998 7.66766 14.668 7.66766C15.0362 7.66766 15.3346 7.96613 15.3346 8.33432V9.78887C15.3346 13.5573 12.3923 16.6402 8.66724 16.9715C8.66745 16.9764 8.66761 16.9813 8.66771 16.9862C8.66781 16.991 8.66786 16.9958 8.66786 17.0007L8.66786 19.0007C8.66786 19.3688 8.36939 19.6673 8.0012 19.6673C7.63301 19.6673 7.33453 19.3688 7.33453 19.0007V17.0007C7.33453 16.9909 7.33474 16.9812 7.33516 16.9715C3.61021 16.6401 0.667969 13.5572 0.667969 9.78887V8.33432C0.667969 7.96613 0.966446 7.66766 1.33464 7.66766Z" fill="white"/>
</svg>
