<svg width="16" height="16" viewBox="0 0 16 16" fill="none" xmlns="http://www.w3.org/2000/svg">
<circle cx="8" cy="8" r="8" fill="#FF5358"/>
<path d="M7.9999 2.56006C6.7199 2.56006 6.3999 3.77024 6.3999 4.37533C6.53324 6.1906 6.8799 9.94217 7.1999 10.4262C7.5999 11.0313 8.3999 11.0313 8.7999 10.4262C9.1199 9.94217 9.46657 6.1906 9.5999 4.37533C9.5999 3.77024 9.2799 2.56006 7.9999 2.56006Z" fill="white"/>
<path d="M8.96004 12.48C8.96004 13.0102 8.53023 13.44 8.00004 13.44C7.46985 13.44 7.04004 13.0102 7.04004 12.48C7.04004 11.9498 7.46985 11.52 8.00004 11.52C8.53023 11.52 8.96004 11.9498 8.96004 12.48Z" fill="white"/>
</svg>
