<svg width="25" height="25" viewBox="0 0 25 25" fill="none" xmlns="http://www.w3.org/2000/svg">
<circle cx="12.5" cy="12.5" r="12.5" fill="#FF5358"/>
<path d="M12.5 4C10.5 4 10 5.89091 10 6.83636C10.2083 9.67273 10.75 15.5345 11.25 16.2909C11.875 17.2364 13.125 17.2364 13.75 16.2909C14.25 15.5345 14.7917 9.67273 15 6.83636C15 5.89091 14.5 4 12.5 4Z" fill="white"/>
<path d="M14 19.5C14 20.3284 13.3284 21 12.5 21C11.6716 21 11 20.3284 11 19.5C11 18.6716 11.6716 18 12.5 18C13.3284 18 14 18.6716 14 19.5Z" fill="white"/>
</svg>
