<svg width="54" height="11" viewBox="0 0 54 11" fill="none" xmlns="http://www.w3.org/2000/svg">
<path d="M6.92969 0.530273V6.79199C6.93652 7.93359 6.12988 8.75391 4.89258 8.76074C3.66895 8.75391 2.8623 7.93359 2.85547 6.79199V0.530273H0.804688V6.95605C0.804688 9.12305 2.43164 10.5723 4.89258 10.5654C7.34668 10.5723 8.99414 9.12305 8.99414 6.95605V0.530273H6.92969ZM12.3984 0.530273H10.1016L13.5332 10.4287H16.1719L19.5898 0.530273H17.3203L14.9004 8.07715H14.8047L12.3984 0.530273ZM20.7109 10.4287H27.3691V8.7334H22.7617V6.32715H27.0137V4.63184H22.7617V2.22559H27.3555V0.530273H20.7109V10.4287ZM28.9551 10.4287H31.0059V6.91504H32.5713L34.4648 10.4287H36.7344L34.6289 6.58008C35.7568 6.09473 36.3789 5.11035 36.3789 3.75684C36.3789 1.79492 35.0869 0.530273 32.8379 0.530273H28.9551V10.4287ZM31.0059 5.24707V2.21191H32.4551C33.6719 2.21875 34.2666 2.75879 34.2598 3.75684C34.2666 4.74805 33.6719 5.24707 32.4551 5.24707H31.0059ZM43.1738 3.36035H45.1426C45.1152 1.61035 43.6729 0.393555 41.4785 0.393555C39.3115 0.393555 37.7256 1.58984 37.7324 3.3877C37.7324 4.83691 38.7578 5.6709 40.4258 6.08105L41.5059 6.34082C42.5859 6.60742 43.2012 6.92188 43.2012 7.59863C43.2012 8.33691 42.5039 8.84277 41.4238 8.84277C40.3301 8.84277 39.5371 8.33691 39.4688 7.33887H37.4727C37.5342 9.46484 39.0586 10.5723 41.4512 10.5654C43.8643 10.5723 45.2725 9.41016 45.2793 7.59863C45.2725 5.95117 44.0078 5.08984 42.3125 4.7002L41.4238 4.48145C40.5693 4.29004 39.8311 3.96875 39.8379 3.25098C39.8447 2.59473 40.4258 2.11621 41.4648 2.11621C42.4697 2.11621 43.0918 2.57422 43.1738 3.36035ZM46.6191 10.4287H53.2773V8.7334H48.6699V6.32715H52.9219V4.63184H48.6699V2.22559H53.2637V0.530273H46.6191V10.4287Z" fill="url(#paint0_linear_1527_5646)"/>
<defs>
<linearGradient id="paint0_linear_1527_5646" x1="57" y1="2.4287" x2="-3.95074" y2="4.6259" gradientUnits="userSpaceOnUse">
<stop offset="0.018775" stop-color="#C716E3"/>
<stop offset="0.473958" stop-color="#F22DAC"/>
<stop offset="1" stop-color="#FEAF6D"/>
</linearGradient>
</defs>
</svg>
