<svg width="31" height="31" viewBox="0 0 31 31" fill="none" xmlns="http://www.w3.org/2000/svg">
<path d="M7.69727 14.4871C7.97341 14.0088 8.585 13.845 9.06329 14.1211L14.9996 17.5484C15.4779 17.8246 15.6418 18.4362 15.3656 18.9144L10.7222 26.9571C10.3394 27.6201 9.38404 27.6247 8.99494 26.9654L7.56844 24.5483C7.39033 24.2465 7.06723 24.06 6.7168 24.0566L3.91028 24.0298C3.14475 24.0225 2.67103 23.1928 3.05381 22.5298L7.69727 14.4871Z" fill="#0074BA"/>
<path d="M7.69727 14.4871C7.97341 14.0088 8.585 13.845 9.06329 14.1211L14.9996 17.5484C15.4779 17.8246 15.6418 18.4362 15.3656 18.9144L10.7222 26.9571C10.3394 27.6201 9.38404 27.6247 8.99494 26.9654L7.56844 24.5483C7.39033 24.2465 7.06723 24.06 6.7168 24.0566L3.91028 24.0298C3.14475 24.0225 2.67103 23.1928 3.05381 22.5298L7.69727 14.4871Z" fill="url(#paint0_linear_1096_93618)"/>
<path fill-rule="evenodd" clip-rule="evenodd" d="M3.96923 24.0297L9.5332 14.3926L14.5326 17.279L8.96669 26.9194L7.56695 24.5476C7.38884 24.2458 7.06573 24.0593 6.7153 24.0559L3.96923 24.0297Z" fill="#D3D3D3"/>
<path fill-rule="evenodd" clip-rule="evenodd" d="M3.96923 24.0297L9.5332 14.3926L14.5326 17.279L8.96669 26.9194L7.56695 24.5476C7.38884 24.2458 7.06573 24.0593 6.7153 24.0559L3.96923 24.0297Z" fill="url(#paint1_linear_1096_93618)"/>
<path fill-rule="evenodd" clip-rule="evenodd" d="M8.10918 25.4633L7.5687 24.5475C7.39059 24.2457 7.06748 24.0591 6.71705 24.0558L5.64354 24.0455L10.7949 15.123L13.2581 16.5451L8.10918 25.4633Z" fill="#F8312F"/>
<path fill-rule="evenodd" clip-rule="evenodd" d="M8.10918 25.4633L7.5687 24.5475C7.39059 24.2457 7.06748 24.0591 6.71705 24.0558L5.64354 24.0455L10.7949 15.123L13.2581 16.5451L8.10918 25.4633Z" fill="url(#paint2_linear_1096_93618)"/>
<path d="M22.3691 14.4871C22.093 14.0088 21.4814 13.845 21.0031 14.1211L15.0668 17.5484C14.5885 17.8246 14.4246 18.4362 14.7008 18.9144L19.3442 26.9571C19.727 27.6201 20.6824 27.6247 21.0715 26.9654L22.498 24.5483C22.6761 24.2465 22.9992 24.06 23.3496 24.0566L26.1561 24.0298C26.9217 24.0225 27.3954 23.1928 27.0126 22.5298L22.3691 14.4871Z" fill="#0074BA"/>
<path d="M22.3691 14.4871C22.093 14.0088 21.4814 13.845 21.0031 14.1211L15.0668 17.5484C14.5885 17.8246 14.4246 18.4362 14.7008 18.9144L19.3442 26.9571C19.727 27.6201 20.6824 27.6247 21.0715 26.9654L22.498 24.5483C22.6761 24.2465 22.9992 24.06 23.3496 24.0566L26.1561 24.0298C26.9217 24.0225 27.3954 23.1928 27.0126 22.5298L22.3691 14.4871Z" fill="url(#paint3_linear_1096_93618)"/>
<path fill-rule="evenodd" clip-rule="evenodd" d="M26.0972 24.0297L20.5332 14.3926L15.5338 17.279L21.0997 26.9194L22.4995 24.5476C22.6776 24.2458 23.0007 24.0593 23.3511 24.0559L26.0972 24.0297Z" fill="#D3D3D3"/>
<path fill-rule="evenodd" clip-rule="evenodd" d="M26.0972 24.0297L20.5332 14.3926L15.5338 17.279L21.0997 26.9194L22.4995 24.5476C22.6776 24.2458 23.0007 24.0593 23.3511 24.0559L26.0972 24.0297Z" fill="url(#paint4_linear_1096_93618)"/>
<path fill-rule="evenodd" clip-rule="evenodd" d="M21.9572 25.4633L22.4977 24.5475C22.6758 24.2457 22.9989 24.0591 23.3494 24.0558L24.4229 24.0455L19.2715 15.123L16.8083 16.5451L21.9572 25.4633Z" fill="#F8312F"/>
<path fill-rule="evenodd" clip-rule="evenodd" d="M21.9572 25.4633L22.4977 24.5475C22.6758 24.2457 22.9989 24.0591 23.3494 24.0558L24.4229 24.0455L19.2715 15.123L16.8083 16.5451L21.9572 25.4633Z" fill="url(#paint5_linear_1096_93618)"/>
<g clip-path="url(#clip0_1096_93618)">
<path d="M14.9619 21.0019C20.5068 21.0019 25.0019 16.3949 25.0019 10.7119C25.0019 5.02887 20.5068 0.421875 14.9619 0.421875C9.41694 0.421875 4.92188 5.02887 4.92188 10.7119C4.92188 16.3949 9.41694 21.0019 14.9619 21.0019Z" fill="url(#paint6_linear_1096_93618)"/>
<path d="M14.9628 19.7616C12.6028 19.7616 10.3828 18.8216 8.72281 17.1116C7.05281 15.4016 6.13281 13.1316 6.13281 10.7116C6.13281 8.29157 7.05281 6.02156 8.72281 4.31156C12.1628 0.781563 17.7628 0.781563 21.2128 4.31156C24.6528 7.84156 24.6528 13.5816 21.2128 17.1116C19.5328 18.8216 17.3128 19.7616 14.9628 19.7616ZM14.9528 2.89156C13.0028 2.89156 11.0428 3.65157 9.56281 5.18157C8.12281 6.66157 7.33281 8.62157 7.33281 10.7116C7.33281 12.8016 8.12281 14.7616 9.56281 16.2416C11.0028 17.7216 12.9228 18.5316 14.9528 18.5316C16.9928 18.5316 18.9028 17.7216 20.3428 16.2416C23.3128 13.1916 23.3128 8.23157 20.3428 5.18157C18.8628 3.65157 16.9128 2.89156 14.9528 2.89156Z" fill="#E6E6E6"/>
<g filter="url(#filter0_di_1096_93618)">
<path d="M16.8391 14.9503H12.8691C12.4791 14.9503 12.1291 14.7303 11.9591 14.3703C11.7891 14.0203 11.8391 13.6003 12.0891 13.3003L15.3891 9.25031C15.6491 8.93031 15.5291 8.59031 15.4891 8.49031C15.4391 8.37031 15.2791 8.1003 14.9091 8.0903C14.8991 8.0903 14.8791 8.0903 14.8591 8.0903C14.5391 8.0903 14.2491 8.24031 14.0591 8.50031C13.7391 8.95031 13.1091 9.06031 12.6491 8.74031C12.1891 8.42031 12.0891 7.79031 12.4091 7.33031C12.9691 6.54031 13.8791 6.07031 14.8491 6.07031C14.8991 6.07031 14.9391 6.07031 14.9791 6.07031C15.9991 6.12031 16.8891 6.73031 17.3091 7.66031C17.7391 8.62031 17.5991 9.71031 16.9391 10.5203L14.9891 12.9203H16.8291C17.3891 12.9203 17.8391 13.3703 17.8391 13.9303C17.8391 14.4903 17.3991 14.9503 16.8391 14.9503Z" fill="#636363"/>
</g>
</g>
<defs>
<filter id="filter0_di_1096_93618" x="11.7594" y="5.97031" width="6.78047" height="9.68086" filterUnits="userSpaceOnUse" color-interpolation-filters="sRGB">
<feFlood flood-opacity="0" result="BackgroundImageFix"/>
<feColorMatrix in="SourceAlpha" type="matrix" values="0 0 0 0 0 0 0 0 0 0 0 0 0 0 0 0 0 0 127 0" result="hardAlpha"/>
<feOffset dx="0.3" dy="0.3"/>
<feGaussianBlur stdDeviation="0.2"/>
<feComposite in2="hardAlpha" operator="out"/>
<feColorMatrix type="matrix" values="0 0 0 0 1 0 0 0 0 1 0 0 0 0 1 0 0 0 0.45 0"/>
<feBlend mode="normal" in2="BackgroundImageFix" result="effect1_dropShadow_1096_93618"/>
<feBlend mode="normal" in="SourceGraphic" in2="effect1_dropShadow_1096_93618" result="shape"/>
<feColorMatrix in="SourceAlpha" type="matrix" values="0 0 0 0 0 0 0 0 0 0 0 0 0 0 0 0 0 0 127 0" result="hardAlpha"/>
<feOffset dx="0.3" dy="0.3"/>
<feGaussianBlur stdDeviation="0.15"/>
<feComposite in2="hardAlpha" operator="arithmetic" k2="-1" k3="1"/>
<feColorMatrix type="matrix" values="0 0 0 0 0 0 0 0 0 0 0 0 0 0 0 0 0 0 0.25 0"/>
<feBlend mode="normal" in2="shape" result="effect2_innerShadow_1096_93618"/>
</filter>
<linearGradient id="paint0_linear_1096_93618" x1="10.502" y1="18.5" x2="8.00195" y2="23" gradientUnits="userSpaceOnUse">
<stop stop-color="#004975"/>
<stop offset="1" stop-color="#0074BA"/>
</linearGradient>
<linearGradient id="paint1_linear_1096_93618" x1="10.002" y1="19.002" x2="8.00195" y2="22.502" gradientUnits="userSpaceOnUse">
<stop stop-color="#9F9F9F"/>
<stop offset="1" stop-color="#D3D3D3"/>
</linearGradient>
<linearGradient id="paint2_linear_1096_93618" x1="7.56445" y1="23.998" x2="11.0645" y2="17.998" gradientUnits="userSpaceOnUse">
<stop stop-color="#F8312F"/>
<stop offset="1" stop-color="#B60200"/>
</linearGradient>
<linearGradient id="paint3_linear_1096_93618" x1="19.5645" y1="18.5" x2="22.0645" y2="23" gradientUnits="userSpaceOnUse">
<stop stop-color="#004975"/>
<stop offset="1" stop-color="#0074BA"/>
</linearGradient>
<linearGradient id="paint4_linear_1096_93618" x1="20.0645" y1="19.002" x2="22.0645" y2="22.502" gradientUnits="userSpaceOnUse">
<stop stop-color="#9F9F9F"/>
<stop offset="1" stop-color="#D3D3D3"/>
</linearGradient>
<linearGradient id="paint5_linear_1096_93618" x1="22.502" y1="23.998" x2="19.002" y2="17.998" gradientUnits="userSpaceOnUse">
<stop stop-color="#F8312F"/>
<stop offset="1" stop-color="#B60200"/>
</linearGradient>
<linearGradient id="paint6_linear_1096_93618" x1="8" y1="3.5" x2="22.5" y2="18.5" gradientUnits="userSpaceOnUse">
<stop stop-color="#BEBEBE"/>
<stop offset="1" stop-color="#898989"/>
</linearGradient>
<clipPath id="clip0_1096_93618">
<rect width="21" height="21.0012" fill="white" transform="translate(4.00195)"/>
</clipPath>
</defs>
</svg>
