<svg width="31" height="31" viewBox="0 0 31 31" fill="none" xmlns="http://www.w3.org/2000/svg">
<path d="M7.82227 14.4871C8.09841 14.0088 8.71 13.845 9.18829 14.1211L15.1246 17.5484C15.6029 17.8246 15.7668 18.4362 15.4906 18.9144L10.8472 26.9571C10.4644 27.6201 9.50904 27.6247 9.11994 26.9654L7.69344 24.5483C7.51533 24.2465 7.19223 24.06 6.8418 24.0566L4.03528 24.0298C3.26975 24.0225 2.79603 23.1928 3.17881 22.5298L7.82227 14.4871Z" fill="#0074BA"/>
<path fill-rule="evenodd" clip-rule="evenodd" d="M4.09423 24.0297L9.6582 14.3926L14.6576 17.279L9.09169 26.9194L7.69195 24.5476C7.51384 24.2458 7.19073 24.0593 6.8403 24.0559L4.09423 24.0297Z" fill="#D3D3D3"/>
<path fill-rule="evenodd" clip-rule="evenodd" d="M4.09423 24.0297L9.6582 14.3926L14.6576 17.279L9.09169 26.9194L7.69195 24.5476C7.51384 24.2458 7.19073 24.0593 6.8403 24.0559L4.09423 24.0297Z" fill="url(#paint0_linear_1096_93590)"/>
<path fill-rule="evenodd" clip-rule="evenodd" d="M8.23418 25.4633L7.6937 24.5475C7.51559 24.2457 7.19248 24.0591 6.84205 24.0558L5.76854 24.0455L10.9199 15.123L13.3831 16.5451L8.23418 25.4633Z" fill="#F8312F"/>
<path fill-rule="evenodd" clip-rule="evenodd" d="M8.23418 25.4633L7.6937 24.5475C7.51559 24.2457 7.19248 24.0591 6.84205 24.0558L5.76854 24.0455L10.9199 15.123L13.3831 16.5451L8.23418 25.4633Z" fill="url(#paint1_linear_1096_93590)"/>
<path d="M22.4941 14.4871C22.218 14.0088 21.6064 13.845 21.1281 14.1211L15.1918 17.5484C14.7135 17.8246 14.5496 18.4362 14.8258 18.9144L19.4692 26.9571C19.852 27.6201 20.8074 27.6247 21.1965 26.9654L22.623 24.5483C22.8011 24.2465 23.1242 24.06 23.4746 24.0566L26.2811 24.0298C27.0467 24.0225 27.5204 23.1928 27.1376 22.5298L22.4941 14.4871Z" fill="#0074BA"/>
<path d="M22.4941 14.4871C22.218 14.0088 21.6064 13.845 21.1281 14.1211L15.1918 17.5484C14.7135 17.8246 14.5496 18.4362 14.8258 18.9144L19.4692 26.9571C19.852 27.6201 20.8074 27.6247 21.1965 26.9654L22.623 24.5483C22.8011 24.2465 23.1242 24.06 23.4746 24.0566L26.2811 24.0298C27.0467 24.0225 27.5204 23.1928 27.1376 22.5298L22.4941 14.4871Z" fill="url(#paint2_linear_1096_93590)"/>
<path fill-rule="evenodd" clip-rule="evenodd" d="M26.2222 24.0297L20.6582 14.3926L15.6588 17.279L21.2247 26.9194L22.6245 24.5476C22.8026 24.2458 23.1257 24.0593 23.4761 24.0559L26.2222 24.0297Z" fill="#D3D3D3"/>
<path fill-rule="evenodd" clip-rule="evenodd" d="M26.2222 24.0297L20.6582 14.3926L15.6588 17.279L21.2247 26.9194L22.6245 24.5476C22.8026 24.2458 23.1257 24.0593 23.4761 24.0559L26.2222 24.0297Z" fill="url(#paint3_linear_1096_93590)"/>
<path fill-rule="evenodd" clip-rule="evenodd" d="M22.0822 25.4633L22.6227 24.5475C22.8008 24.2457 23.1239 24.0591 23.4744 24.0558L24.5479 24.0455L19.3965 15.123L16.9333 16.5451L22.0822 25.4633Z" fill="#F8312F"/>
<path fill-rule="evenodd" clip-rule="evenodd" d="M22.0822 25.4633L22.6227 24.5475C22.8008 24.2457 23.1239 24.0591 23.4744 24.0558L24.5479 24.0455L19.3965 15.123L16.9333 16.5451L22.0822 25.4633Z" fill="url(#paint4_linear_1096_93590)"/>
<path d="M15.1162 20.9999C20.6611 20.9999 25.1562 16.3929 25.1562 10.7099C25.1562 5.02692 20.6611 0.419922 15.1162 0.419922C9.57123 0.419922 5.07617 5.02692 5.07617 10.7099C5.07617 16.3929 9.57123 20.9999 15.1162 20.9999Z" fill="url(#paint5_linear_1096_93590)"/>
<path d="M15.1269 19.7596C12.7669 19.7596 10.5469 18.8196 8.88688 17.1096C7.21688 15.3996 6.29688 13.1296 6.29688 10.7096C6.29688 8.28962 7.21688 6.01961 8.88688 4.30961C12.3269 0.779609 17.9269 0.779609 21.3769 4.30961C24.8169 7.83961 24.8169 13.5796 21.3769 17.1096C19.6969 18.8196 17.4769 19.7596 15.1269 19.7596ZM15.1169 2.88961C13.1669 2.88961 11.2069 3.64962 9.72688 5.17962C8.28688 6.65962 7.49687 8.61962 7.49687 10.7096C7.49687 12.7996 8.28688 14.7596 9.72688 16.2396C11.1669 17.7196 13.0869 18.5296 15.1169 18.5296C17.1569 18.5296 19.0669 17.7196 20.5069 16.2396C23.4769 13.1896 23.4769 8.22962 20.5069 5.17962C19.0269 3.64962 17.0769 2.88961 15.1169 2.88961Z" fill="#F3AD61"/>
<g filter="url(#filter0_di_1096_93590)">
<path d="M16.5293 9.27458L17.5768 7.4644C17.7497 7.15931 17.7497 6.79322 17.5768 6.48813C17.4039 6.18305 17.0785 6 16.7327 6H13.6412C13.1022 6 12.6649 6.43728 12.6649 6.97626C12.6649 7.51525 13.1022 7.95254 13.6412 7.95254H15.0446L14.292 9.2644C14.1598 9.42711 14.0785 9.64067 14.0785 9.8644C14.0785 10.4034 14.5158 10.8407 15.0548 10.8407C15.6649 10.8407 16.1632 11.339 16.1632 11.9491C16.1632 12.5593 15.6649 13.0576 15.0548 13.0576C14.587 13.0576 14.17 12.7627 14.0175 12.3254C13.8344 11.817 13.2853 11.5627 12.7768 11.7356C12.2683 11.9186 12.0039 12.4678 12.1869 12.9763C12.6242 14.1865 13.7734 15 15.0548 15C16.7327 15 18.1056 13.6373 18.1056 11.9491C18.0954 10.7898 17.4649 9.79323 16.5293 9.27458Z" fill="#402A32"/>
</g>
<defs>
<filter id="filter0_di_1096_93590" x="12.0289" y="5.9" width="6.77656" height="9.8" filterUnits="userSpaceOnUse" color-interpolation-filters="sRGB">
<feFlood flood-opacity="0" result="BackgroundImageFix"/>
<feColorMatrix in="SourceAlpha" type="matrix" values="0 0 0 0 0 0 0 0 0 0 0 0 0 0 0 0 0 0 127 0" result="hardAlpha"/>
<feOffset dx="0.3" dy="0.3"/>
<feGaussianBlur stdDeviation="0.2"/>
<feComposite in2="hardAlpha" operator="out"/>
<feColorMatrix type="matrix" values="0 0 0 0 1 0 0 0 0 1 0 0 0 0 1 0 0 0 0.45 0"/>
<feBlend mode="normal" in2="BackgroundImageFix" result="effect1_dropShadow_1096_93590"/>
<feBlend mode="normal" in="SourceGraphic" in2="effect1_dropShadow_1096_93590" result="shape"/>
<feColorMatrix in="SourceAlpha" type="matrix" values="0 0 0 0 0 0 0 0 0 0 0 0 0 0 0 0 0 0 127 0" result="hardAlpha"/>
<feOffset dx="0.3" dy="0.3"/>
<feGaussianBlur stdDeviation="0.15"/>
<feComposite in2="hardAlpha" operator="arithmetic" k2="-1" k3="1"/>
<feColorMatrix type="matrix" values="0 0 0 0 0 0 0 0 0 0 0 0 0 0 0 0 0 0 0.25 0"/>
<feBlend mode="normal" in2="shape" result="effect2_innerShadow_1096_93590"/>
</filter>
<linearGradient id="paint0_linear_1096_93590" x1="10.127" y1="19.002" x2="8.12695" y2="22.502" gradientUnits="userSpaceOnUse">
<stop stop-color="#9F9F9F"/>
<stop offset="1" stop-color="#D3D3D3"/>
</linearGradient>
<linearGradient id="paint1_linear_1096_93590" x1="7.68945" y1="23.998" x2="11.1895" y2="17.998" gradientUnits="userSpaceOnUse">
<stop stop-color="#F8312F"/>
<stop offset="1" stop-color="#B60200"/>
</linearGradient>
<linearGradient id="paint2_linear_1096_93590" x1="19.6895" y1="18.5" x2="22.1895" y2="23" gradientUnits="userSpaceOnUse">
<stop stop-color="#004975"/>
<stop offset="1" stop-color="#0074BA"/>
</linearGradient>
<linearGradient id="paint3_linear_1096_93590" x1="20.1895" y1="19.002" x2="22.1895" y2="22.502" gradientUnits="userSpaceOnUse">
<stop stop-color="#9F9F9F"/>
<stop offset="1" stop-color="#D3D3D3"/>
</linearGradient>
<linearGradient id="paint4_linear_1096_93590" x1="22.627" y1="23.998" x2="19.127" y2="17.998" gradientUnits="userSpaceOnUse">
<stop stop-color="#F8312F"/>
<stop offset="1" stop-color="#B60200"/>
</linearGradient>
<linearGradient id="paint5_linear_1096_93590" x1="8.62695" y1="3.49805" x2="22.127" y2="18.498" gradientUnits="userSpaceOnUse">
<stop stop-color="#D3883E"/>
<stop offset="1" stop-color="#B35A02"/>
</linearGradient>
</defs>
</svg>
