<svg width="26" height="26" viewBox="0 0 26 26" fill="none" xmlns="http://www.w3.org/2000/svg">
<path fill-rule="evenodd" clip-rule="evenodd" d="M13 25.5C10.75 25.5 8.5 24.875 6.625 23.75L2.60373 24.8989C1.67366 25.1647 0.807149 24.3187 1.05055 23.3825L2.125 19.25C1.125 17.375 0.5 15.25 0.5 13C0.5 6.125 6.125 0.5 13 0.5C19.875 0.5 25.5 6.125 25.5 13C25.5 19.875 19.875 25.5 13 25.5ZM8 14.25C8.69036 14.25 9.25 13.6904 9.25 13C9.25 12.3096 8.69036 11.75 8 11.75C7.30964 11.75 6.75 12.3096 6.75 13C6.75 13.6904 7.30964 14.25 8 14.25ZM14.25 13C14.25 13.6904 13.6904 14.25 13 14.25C12.3096 14.25 11.75 13.6904 11.75 13C11.75 12.3096 12.3096 11.75 13 11.75C13.6904 11.75 14.25 12.3096 14.25 13ZM18 14.25C18.6904 14.25 19.25 13.6904 19.25 13C19.25 12.3096 18.6904 11.75 18 11.75C17.3096 11.75 16.75 12.3096 16.75 13C16.75 13.6904 17.3096 14.25 18 14.25Z" fill="#333333"/>
</svg>
