<svg width="22" height="22" viewBox="0 0 22 22" fill="none" xmlns="http://www.w3.org/2000/svg">
<path d="M3.75 10H6.25C8.75 10 10 8.75 10 6.25V3.75C10 1.25 8.75 0 6.25 0H3.75C1.25 0 0 1.25 0 3.75V6.25C0 8.75 1.25 10 3.75 10Z" fill="#333333"/>
<path d="M15.75 10H18.25C20.75 10 22 8.75 22 6.25V3.75C22 1.25 20.75 0 18.25 0H15.75C13.25 0 12 1.25 12 3.75V6.25C12 8.75 13.25 10 15.75 10Z" fill="#333333"/>
<path d="M15.75 22H18.25C20.75 22 22 20.75 22 18.25V15.75C22 13.25 20.75 12 18.25 12H15.75C13.25 12 12 13.25 12 15.75V18.25C12 20.75 13.25 22 15.75 22Z" fill="#333333"/>
<path d="M3.75 22H6.25C8.75 22 10 20.75 10 18.25V15.75C10 13.25 8.75 12 6.25 12H3.75C1.25 12 0 13.25 0 15.75V18.25C0 20.75 1.25 22 3.75 22Z" fill="#333333"/>
</svg>
