<svg width="90" height="102" viewBox="0 0 90 102" fill="none" xmlns="http://www.w3.org/2000/svg">
<path d="M1 41H89V93C89 96.866 85.866 100 82 100H8C4.13401 100 1 96.866 1 93V41Z" fill="url(#paint0_linear_147_8089)"/>
<path d="M19.4952 1.0104C28.6492 -0.55086 36.9051 7.22878 42.1484 14.6146C44.6308 18.1115 42.6599 22.7879 38.4503 23.6066C30.6137 25.1308 24.1865 24.9691 20.2113 24.4093C18.3055 24.141 16.7146 22.8604 16.0229 21.0643C13.1739 13.667 14.4782 7.24636 16.14 3.58749C16.7595 2.22364 18.0186 1.26224 19.4952 1.0104Z" fill="url(#paint1_linear_147_8089)"/>
<path d="M30.9576 11.0511C34.1952 10.7315 37.2123 11.949 39.6744 13.6164C42.621 15.6119 41.1693 19.6281 37.6198 19.8825C35.0974 20.0632 32.9875 20.0131 31.4628 19.8825C30.2217 19.7762 29.0722 19.097 28.5746 17.955C27.5933 15.703 28.0241 13.7394 28.7137 12.4468C29.1543 11.6212 30.0263 11.1431 30.9576 11.0511Z" fill="url(#paint2_linear_147_8089)"/>
<path d="M71.8544 0.201803C62.7004 -1.35945 54.4445 6.42018 49.2012 13.806C46.7188 17.3029 48.6897 21.9793 52.8993 22.798C60.7359 24.3222 67.1631 24.1605 71.1383 23.6008C73.0442 23.3324 74.635 22.0518 75.3268 20.2557C78.1757 12.8584 76.8714 6.43777 75.2096 2.7789C74.5902 1.41505 73.331 0.453643 71.8544 0.201803Z" fill="url(#paint3_linear_147_8089)"/>
<path d="M0 40H90V28C90 24.134 86.866 21 83 21H7C3.13401 21 0 24.134 0 28V40Z" fill="url(#paint4_linear_147_8089)"/>
<path d="M59.0424 11.0511C55.8048 10.7315 52.7877 11.949 50.3256 13.6164C47.379 15.6119 48.8307 19.6281 52.3802 19.8825C54.9026 20.0632 57.0125 20.0131 58.5372 19.8825C59.7783 19.7762 60.9278 19.097 61.4254 17.955C62.4067 15.703 61.9759 13.7394 61.2863 12.4468C60.8457 11.6212 59.9737 11.1431 59.0424 11.0511Z" fill="url(#paint5_linear_147_8089)"/>
<path d="M37.981 15.7974C37.981 13.0359 40.2195 10.7974 42.981 10.7974H47.5194C50.2808 10.7974 52.5194 13.0359 52.5194 15.7974V18.8641C52.5194 21.6255 50.2808 23.8641 47.5194 23.8641H42.981C40.2195 23.8641 37.981 21.6255 37.981 18.8641V17.3307V15.7974Z" fill="url(#paint6_linear_147_8089)"/>
<path d="M34 22C34 20.3431 35.3431 19 37 19H53C54.6569 19 56 20.3431 56 22V99C56 100.657 54.6569 102 53 102H37C35.3431 102 34 100.657 34 99V22Z" fill="url(#paint7_linear_147_8089)"/>
<defs>
<linearGradient id="paint0_linear_147_8089" x1="45" y1="41" x2="45" y2="100" gradientUnits="userSpaceOnUse">
<stop stop-color="#10347E"/>
<stop offset="1" stop-color="#385FAE"/>
</linearGradient>
<linearGradient id="paint1_linear_147_8089" x1="30.3496" y1="0.808594" x2="30.3496" y2="24.8086" gradientUnits="userSpaceOnUse">
<stop stop-color="#FEE600"/>
<stop offset="1" stop-color="#FEB700"/>
</linearGradient>
<linearGradient id="paint2_linear_147_8089" x1="36.5" y1="11" x2="36.5" y2="20" gradientUnits="userSpaceOnUse">
<stop stop-color="#FEB700"/>
<stop offset="0.596875" stop-color="#FEC700"/>
<stop offset="1" stop-color="#FED500"/>
</linearGradient>
<linearGradient id="paint3_linear_147_8089" x1="61" y1="0" x2="61" y2="24" gradientUnits="userSpaceOnUse">
<stop stop-color="#FEE600"/>
<stop offset="1" stop-color="#FEB700"/>
</linearGradient>
<linearGradient id="paint4_linear_147_8089" x1="45" y1="40" x2="45" y2="21" gradientUnits="userSpaceOnUse">
<stop stop-color="#10347E"/>
<stop offset="1" stop-color="#385FAE"/>
</linearGradient>
<linearGradient id="paint5_linear_147_8089" x1="53.5" y1="11" x2="53.5" y2="20" gradientUnits="userSpaceOnUse">
<stop stop-color="#FEB700"/>
<stop offset="0.596875" stop-color="#FEC700"/>
<stop offset="1" stop-color="#FED500"/>
</linearGradient>
<linearGradient id="paint6_linear_147_8089" x1="45.2502" y1="10.7974" x2="45.2502" y2="23.8641" gradientUnits="userSpaceOnUse">
<stop stop-color="#FEE600"/>
<stop offset="1" stop-color="#FEB700"/>
</linearGradient>
<linearGradient id="paint7_linear_147_8089" x1="45" y1="19" x2="45" y2="102" gradientUnits="userSpaceOnUse">
<stop stop-color="#FEE600"/>
<stop offset="1" stop-color="#FEB700"/>
</linearGradient>
</defs>
</svg>
