<svg width="90" height="102" viewBox="0 0 90 102" fill="none" xmlns="http://www.w3.org/2000/svg">
<path d="M19.6633 1.99616C23.8971 1.27408 27.9867 2.69731 31.7194 5.27972C35.4546 7.86389 38.751 11.5565 41.3329 15.1935C43.3771 18.0729 41.7859 21.9391 38.2594 22.625C30.5318 24.128 24.2162 23.9634 20.3508 23.4191C18.8096 23.2021 17.5192 22.1672 16.956 20.7049C14.2185 13.5969 15.481 7.4567 17.0505 4.00102C17.5312 2.94269 18.5101 2.19286 19.6633 1.99616Z" fill="white" stroke="#E6E7E8" stroke-width="2"/>
<path d="M71.6863 1.18757C67.4525 0.465484 63.3629 1.88872 59.6302 4.47112C55.895 7.0553 52.5986 10.7479 50.0167 14.3849C47.9725 17.2643 49.5637 21.1305 53.0902 21.8164C60.8178 23.3194 67.1334 23.1549 70.9988 22.6105C72.54 22.3935 73.8304 21.3586 74.3936 19.8963C77.1311 12.7883 75.8686 6.6481 74.2991 3.19243C73.8184 2.1341 72.8396 1.38426 71.6863 1.18757Z" fill="white" stroke="#E6E7E8" stroke-width="2"/>
<path d="M42.981 11.7974H47.5194C49.7285 11.7974 51.5194 13.5882 51.5194 15.7974V18.8641C51.5194 21.0732 49.7285 22.8641 47.5194 22.8641H42.981C40.7718 22.8641 38.981 21.0732 38.981 18.8641V17.3307V15.7974C38.981 13.5882 40.7718 11.7974 42.981 11.7974Z" fill="white" stroke="#E6E7E8" stroke-width="2"/>
<path d="M2 42H88V93C88 96.3137 85.3137 99 82 99H8C4.68629 99 2 96.3137 2 93V42Z" fill="#E6E7E8" stroke="#E6E7E8" stroke-width="2"/>
<path d="M1 39H89V28C89 24.6863 86.3137 22 83 22H7C3.68629 22 1 24.6863 1 28V39Z" fill="#E6E7E8" stroke="#E6E7E8" stroke-width="2"/>
<path d="M37 20H53C54.1046 20 55 20.8954 55 22V99C55 100.105 54.1046 101 53 101H37C35.8954 101 35 100.105 35 99V22C35 20.8954 35.8954 20 37 20Z" fill="white" stroke="#E6E7E8" stroke-width="2"/>
</svg>
