<svg width="1197" height="557" viewBox="0 0 1197 557" fill="none" xmlns="http://www.w3.org/2000/svg">
<g filter="url(#filter0_d_169_46619)">
<path d="M1133.55 0H420.15L390.425 30.5L360.7 0H63.45C33.725 0 4 30.5 4 61V488C4 518.5 33.725 549 63.45 549H360.7L390.425 518.5L420.15 549H1133.55C1163.27 549 1193 518.5 1193 488V61C1193 30.5 1163.27 0.000870112 1133.55 0Z" fill="white"/>
</g>
<rect x="394" y="434" width="782" height="1" fill="#EEEEEE"/>
<path d="M360.7 549L390.425 518.5V30.5L360.7 0H63.45C33.725 0 4 30.5 4 61V488C4 518.5 33.725 549 63.45 549H360.7Z" fill="#FFE800"/>
<line x1="390.529" y1="37.5291" x2="390.529" y2="511.471" stroke="#FEC600" stroke-width="3.05826" stroke-linecap="round" stroke-dasharray="6.12 6.12"/>
<defs>
<filter id="filter0_d_169_46619" x="0" y="0" width="1197" height="557" filterUnits="userSpaceOnUse" color-interpolation-filters="sRGB">
<feFlood flood-opacity="0" result="BackgroundImageFix"/>
<feColorMatrix in="SourceAlpha" type="matrix" values="0 0 0 0 0 0 0 0 0 0 0 0 0 0 0 0 0 0 127 0" result="hardAlpha"/>
<feOffset dy="4"/>
<feGaussianBlur stdDeviation="2"/>
<feComposite in2="hardAlpha" operator="out"/>
<feColorMatrix type="matrix" values="0 0 0 0 0 0 0 0 0 0 0 0 0 0 0 0 0 0 0.25 0"/>
<feBlend mode="normal" in2="BackgroundImageFix" result="effect1_dropShadow_169_46619"/>
<feBlend mode="normal" in="SourceGraphic" in2="effect1_dropShadow_169_46619" result="shape"/>
</filter>
</defs>
</svg>
