<svg width="88" height="88" viewBox="0 0 88 88" fill="none" xmlns="http://www.w3.org/2000/svg">
<path d="M25.8211 8.63557C30.883 8.09499 35.6843 11.87 39.2958 16.372C41.4689 19.0809 39.9142 22.9237 36.3931 23.4412C32.3201 24.0399 28.9184 23.9952 26.5349 23.738C25.0021 23.5726 23.7218 22.555 23.2363 21.1076C21.7674 16.7278 22.398 12.9315 23.3367 10.5485C23.7525 9.49297 24.7105 8.75417 25.8211 8.63557Z" fill="white" stroke="#E6E7E8" stroke-width="2"/>
<path d="M62.1535 8.05208C57.0916 7.5115 52.2903 11.2865 48.6788 15.7885C46.5057 18.4974 48.0604 22.3402 51.5815 22.8577C55.6545 23.4564 59.0562 23.4117 61.4397 23.1545C62.9725 22.9891 64.2528 21.9715 64.7383 20.5241C66.2072 16.1443 65.5766 12.348 64.6379 9.96502C64.2221 8.90947 63.2641 8.17068 62.1535 8.05208Z" fill="white" stroke="#E6E7E8" stroke-width="2"/>
<path d="M39.4305 19.5171C39.4305 17.4633 41.0955 15.7983 43.1493 15.7983H44.2117C46.2656 15.7983 47.9305 17.4633 47.9305 19.5171C47.9305 21.5709 46.2656 23.2359 44.2117 23.2359H43.1493C41.0955 23.2359 39.4305 21.5709 39.4305 19.5171Z" fill="white" stroke="#E6E7E8" stroke-width="2"/>
<path d="M12.7219 37.6123H74.2775V72.2256C74.2775 75.5393 71.5912 78.2256 68.2775 78.2256H18.7219C15.4082 78.2256 12.7219 75.5393 12.7219 72.2256V37.6123Z" fill="#E6E7E8" stroke="#E6E7E8" stroke-width="2"/>
<path d="M11.9999 34.8901H74.9999V29.1672C74.9999 25.8535 72.3136 23.1672 68.9999 23.1672H17.9999C14.6862 23.1672 11.9999 25.8535 11.9999 29.1672V34.8901Z" fill="#E6E7E8" stroke="#E6E7E8" stroke-width="2"/>
<path d="M36.5554 23.7227C36.5554 22.6181 37.4508 21.7227 38.5554 21.7227H48.4443C49.5489 21.7227 50.4443 22.6181 50.4443 23.7227V77.6701C50.4443 78.7747 49.5489 79.6701 48.4443 79.6701H38.5554C37.4509 79.6701 36.5554 78.7747 36.5554 77.6701V23.7227Z" fill="white" stroke="#E6E7E8" stroke-width="2"/>
</svg>
