<svg width="24" height="24" viewBox="0 0 24 24" fill="none" xmlns="http://www.w3.org/2000/svg">
<path d="M12.3246 10.87C12.2246 10.86 12.1046 10.86 11.9946 10.87C9.61461 10.79 7.72461 8.84 7.72461 6.44C7.72461 3.99 9.70461 2 12.1646 2C14.6146 2 16.6046 3.99 16.6046 6.44C16.5946 8.84 14.7046 10.79 12.3246 10.87Z" fill="#DDDDDD"/>
<path d="M7.15875 14.56C4.73875 16.18 4.73875 18.82 7.15875 20.43C9.90875 22.27 14.4188 22.27 17.1688 20.43C19.5888 18.81 19.5888 16.17 17.1688 14.56C14.4288 12.73 9.91875 12.73 7.15875 14.56Z" fill="#DDDDDD"/>
</svg>
