<svg width="12" height="12" viewBox="0 0 12 12" fill="none" xmlns="http://www.w3.org/2000/svg">
<path d="M9.14602 3.25176C8.83939 3.25176 8.54532 3.12946 8.3285 2.91175C8.11168 2.69404 7.98987 2.39877 7.98987 2.09088V1.28294C7.98987 0.97506 8.11168 0.679787 8.3285 0.462081C8.54532 0.244374 8.83939 0.12207 9.14602 0.12207C9.45265 0.12207 9.74673 0.244374 9.96355 0.462081C10.1804 0.679787 10.3022 0.97506 10.3022 1.28294V2.09088C10.3022 2.39877 10.1804 2.69404 9.96355 2.91175C9.74673 3.12946 9.45265 3.25176 9.14602 3.25176V3.25176Z" fill="#EC00D0"/>
<path d="M2.86928 3.28954C2.56287 3.28922 2.26911 3.16677 2.05255 2.9491C1.836 2.73142 1.71436 2.43634 1.71436 2.12866V1.32072C1.70931 1.16518 1.73547 1.0102 1.79127 0.865012C1.84707 0.719819 1.93138 0.587372 2.03918 0.47555C2.14698 0.363728 2.27607 0.274811 2.41878 0.214087C2.56149 0.153363 2.7149 0.12207 2.8699 0.12207C3.02489 0.12207 3.1783 0.153363 3.32101 0.214087C3.46372 0.274811 3.59282 0.363728 3.70062 0.47555C3.80842 0.587372 3.89272 0.719819 3.94852 0.865012C4.00432 1.0102 4.03048 1.16518 4.02544 1.32072V2.12866C4.02544 2.43655 3.90363 2.73182 3.68681 2.94953C3.46998 3.16724 3.17591 3.28954 2.86928 3.28954V3.28954Z" fill="#EC00D0"/>
<path d="M10.3022 4.54297H7.98987V7.9223C7.98987 7.61442 8.11168 7.31914 8.3285 7.10143C8.54532 6.88373 8.83939 6.76142 9.14602 6.76142C9.45265 6.76142 9.74673 6.88373 9.96355 7.10143C10.1804 7.31914 10.3022 7.61442 10.3022 7.9223V7.9223V4.54297Z" fill="#EC00D0"/>
<path d="M2.86917 6.7565C3.02104 6.75634 3.17146 6.78626 3.3118 6.84454C3.45215 6.90282 3.57966 6.98832 3.68705 7.09615C3.79444 7.20398 3.8796 7.33202 3.93765 7.47294C3.99569 7.61386 4.02548 7.76489 4.02532 7.91738V4.54297H1.71424V7.92107C1.7136 7.76837 1.743 7.61704 1.80075 7.47578C1.8585 7.33452 1.94347 7.2061 2.05078 7.0979C2.15809 6.98969 2.28562 6.90383 2.42607 6.84524C2.56651 6.78666 2.71709 6.7565 2.86917 6.7565V6.7565Z" fill="#EC00D0"/>
<path d="M9.14602 6.75684C8.91735 6.75684 8.69383 6.82492 8.5037 6.95248C8.31357 7.08004 8.16538 7.26134 8.07788 7.47346C7.99037 7.68558 7.96747 7.919 8.01208 8.14419C8.05669 8.36938 8.16681 8.57622 8.3285 8.73858C8.49019 8.90093 8.69619 9.01149 8.92047 9.05628C9.14474 9.10107 9.3772 9.07809 9.58846 8.99022C9.79972 8.90236 9.98028 8.75356 10.1073 8.56266C10.2344 8.37175 10.3022 8.14731 10.3022 7.91771V7.91771C10.3022 7.60983 10.1804 7.31456 9.96354 7.09685C9.74672 6.87914 9.45265 6.75684 9.14602 6.75684V6.75684Z" fill="#9933C8"/>
<path d="M2.86916 9.07859C3.09788 9.07883 3.32153 9.01096 3.51182 8.88354C3.70211 8.75613 3.85048 8.57492 3.93818 8.36281C4.02587 8.15071 4.04894 7.91726 4.00447 7.69199C3.96 7.46672 3.84998 7.25976 3.68834 7.09729C3.5267 6.93481 3.3207 6.82413 3.09639 6.77923C2.87209 6.73434 2.63956 6.75726 2.42823 6.84508C2.2169 6.93291 2.03626 7.0817 1.90916 7.27263C1.78207 7.46357 1.71423 7.68806 1.71423 7.91771V7.91771C1.71407 8.0701 1.74383 8.22103 1.80179 8.36187C1.85976 8.50271 1.94481 8.63069 2.05207 8.7385C2.15933 8.84631 2.2867 8.93184 2.4269 8.9902C2.56711 9.04855 2.71739 9.07859 2.86916 9.07859V9.07859Z" fill="#9933C8"/>
<path d="M9.14594 9.07859C8.83952 9.07859 8.54563 8.95645 8.32885 8.73901C8.11206 8.52157 7.99011 8.22662 7.98978 7.91895C7.98978 8.82158 7.10063 9.55573 6.00816 9.55573C4.9157 9.55573 4.02531 8.81789 4.02531 7.91895C4.01554 8.22013 3.88952 8.50569 3.67388 8.71528C3.45824 8.92486 3.16989 9.04204 2.86977 9.04204C2.56966 9.04204 2.2813 8.92486 2.06566 8.71528C1.85002 8.50569 1.724 8.22013 1.71423 7.91895V7.91895C1.71423 10.1017 3.63952 11.8775 6.00816 11.8775C8.3768 11.8775 10.3021 10.1017 10.3021 7.91895C10.3018 8.22662 10.1798 8.52157 9.96303 8.73901C9.74624 8.95645 9.45235 9.07859 9.14594 9.07859V9.07859Z" fill="#AE6AFF"/>
</svg>
