<svg width="52" height="21" viewBox="0 0 52 21" fill="none" xmlns="http://www.w3.org/2000/svg">
<path d="M10 17.167H17.5" stroke="#ACB3C1" stroke-width="1.5" stroke-linecap="round" stroke-linejoin="round"/>
<path d="M13.2504 3.97176C13.5524 3.6697 13.9621 3.5 14.3893 3.5C14.6008 3.5 14.8103 3.54166 15.0057 3.62261C15.2011 3.70355 15.3787 3.82219 15.5282 3.97176C15.6778 4.12133 15.7964 4.29889 15.8774 4.49431C15.9583 4.68972 16 4.89917 16 5.11069C16 5.32221 15.9583 5.53166 15.8774 5.72708C15.7964 5.92249 15.6778 6.10006 15.5282 6.24962L6.03715 15.7407L3 16.5L3.75929 13.4629L13.2504 3.97176Z" stroke="#ACB3C1" stroke-width="2" stroke-linecap="round" stroke-linejoin="round"/>
<path d="M36.48 10.105C33.75 9.715 31.71 8.02 31.71 6.265V5.545H30.075V6.265C30.075 8.05 28.065 9.715 25.305 10.105L25.905 11.35C28.155 10.99 30.03 9.865 30.9 8.29C31.785 9.85 33.63 10.99 35.88 11.35L36.48 10.105ZM37.005 12.625H24.765V13.885H30.075V18.67H31.62V13.885H37.005V12.625ZM45.8388 8.515V9.775H48.2388V13.18H49.7838V5.11H48.2388V8.515H45.8388ZM46.6188 11.53C44.5938 10.825 43.4388 9.145 43.4388 7.45V7.27H46.2588V6.025H39.0138V7.27H41.8788V7.465C41.8788 9.325 40.6638 11.125 38.5638 11.875L39.3588 13.105C40.9638 12.535 42.1038 11.335 42.7038 9.85C43.2738 11.155 44.3538 12.22 45.8538 12.745L46.6188 11.53ZM45.2838 17.47C43.3488 17.47 42.2538 16.99 42.2538 16.105C42.2538 15.22 43.3488 14.74 45.2838 14.74C47.1888 14.74 48.2988 15.22 48.2988 16.105C48.2988 16.99 47.1888 17.47 45.2838 17.47ZM45.2838 13.54C42.4488 13.54 40.7088 14.5 40.7088 16.105C40.7088 17.725 42.4488 18.67 45.2838 18.67C48.1038 18.67 49.8438 17.725 49.8438 16.105C49.8438 14.5 48.1038 13.54 45.2838 13.54Z" fill="#ACB3C1"/>
</svg>
