<svg width="47" height="46" viewBox="0 0 47 46" fill="none" xmlns="http://www.w3.org/2000/svg">
<circle cx="23.5" cy="23" r="22.5" fill="white" stroke="#E6E8F1"/>
<g clip-path="url(#clip0_598_70494)">
<path d="M35.143 23.2358C35.143 22.2357 35.0619 21.5059 34.8862 20.749H23.4658V25.2631H30.1693C30.0342 26.3849 29.3044 28.0743 27.6826 29.2095L27.6598 29.3606L31.2707 32.158L31.5209 32.1829C33.8185 30.061 35.143 26.939 35.143 23.2358Z" fill="#4285F4"/>
<path d="M23.4659 35.1291C26.7501 35.1291 29.5072 34.0478 31.521 32.1828L27.6827 29.2094C26.6555 29.9257 25.2769 30.4257 23.4659 30.4257C20.2493 30.4257 17.5192 28.3039 16.546 25.3711L16.4034 25.3832L12.6487 28.289L12.5996 28.4255C14.5998 32.399 18.7085 35.1291 23.4659 35.1291Z" fill="#34A853"/>
<path d="M16.5456 25.3714C16.2888 24.6146 16.1402 23.8036 16.1402 22.9657C16.1402 22.1277 16.2888 21.3168 16.5321 20.5599L16.5253 20.3988L12.7236 17.4463L12.5992 17.5055C11.7748 19.1543 11.3018 21.006 11.3018 22.9657C11.3018 24.9254 11.7748 26.7769 12.5992 28.4258L16.5456 25.3714Z" fill="#FBBC05"/>
<path d="M23.4659 15.505C25.75 15.505 27.2907 16.4917 28.1692 17.3161L31.6021 13.9643C29.4937 12.0046 26.7501 10.8018 23.4659 10.8018C18.7085 10.8018 14.5998 13.5318 12.5996 17.5053L16.5325 20.5598C17.5192 17.627 20.2493 15.505 23.4659 15.505Z" fill="#EB4335"/>
</g>
<defs>
<clipPath id="clip0_598_70494">
<rect width="24.6429" height="24.6429" fill="white" transform="translate(11.1787 10.6787)"/>
</clipPath>
</defs>
</svg>
